<?xml version="1.0" standalone="no"?>
<!DOCTYPE svg PUBLIC "-//W3C//DTD SVG 20010904//EN"
 "http://www.w3.org/TR/2001/REC-SVG-20010904/DTD/svg10.dtd">
<svg version="1.0" xmlns="http://www.w3.org/2000/svg"
 width="1000.000000pt" height="1500.000000pt" viewBox="0 0 1000.000000 1500.000000"
 preserveAspectRatio="xMidYMid meet">

<g transform="translate(0.000000,1500.000000) scale(0.100000,-0.100000)"
fill="#000000" stroke="none">
<path d="M4956 14984 c-9 -23 -2 -28 13 -10 7 8 8 17 3 20 -6 3 -13 -1 -16
-10z"/>
<path d="M4989 14984 c-10 -13 -10 -17 2 -25 8 -5 20 -6 28 -4 8 3 17 1 20 -4
4 -6 12 -6 21 -1 13 8 12 10 -2 10 -11 0 -18 8 -18 20 0 24 -32 27 -51 4z m31
-4 c0 -5 -5 -10 -11 -10 -5 0 -7 5 -4 10 3 6 8 10 11 10 2 0 4 -4 4 -10z"/>
<path d="M5083 14993 c9 -2 17 -12 17 -21 1 -15 2 -15 14 1 21 27 60 11 67
-28 2 -10 10 -20 18 -23 9 -3 11 0 6 8 -6 9 -4 12 6 8 8 -3 23 -2 34 2 16 6
13 8 -17 14 -28 5 -35 11 -31 24 4 15 -5 18 -64 19 -37 1 -60 -1 -50 -4z"/>
<path d="M5212 14982 c4 -23 34 -27 54 -8 8 9 21 13 27 9 8 -5 8 -8 -1 -11
-17 -5 -15 -22 2 -22 9 0 12 -7 9 -19 -3 -11 0 -28 7 -38 10 -16 10 -16 5 4
-7 24 12 42 21 20 6 -16 64 -13 97 5 9 5 21 6 26 3 5 -3 12 1 14 7 4 10 6 10
6 0 1 -8 -8 -16 -19 -19 -14 -4 -20 -12 -18 -26 2 -15 -4 -23 -22 -27 l-25 -6
30 -8 c60 -16 74 -16 88 -1 9 8 17 10 19 5 2 -5 13 -11 25 -13 24 -3 67 -50
56 -61 -12 -12 -25 -6 -19 9 3 9 -3 19 -14 25 -14 8 -20 8 -20 0 0 -7 -6 -10
-12 -7 -7 2 -13 9 -13 15 0 7 -3 12 -7 12 -5 0 -12 0 -18 0 -5 0 -2 -9 7 -20
10 -11 23 -20 30 -20 7 0 13 -5 13 -11 0 -5 4 -8 9 -5 5 3 12 -1 15 -10 3 -8
9 -13 14 -10 4 2 8 -4 8 -15 0 -10 -4 -19 -9 -19 -4 0 -5 -4 -2 -10 15 -24 23
-9 27 50 2 22 28 68 28 49 0 -9 7 -22 15 -29 9 -7 13 -15 10 -18 -3 -3 -12 3
-21 14 -10 12 -14 14 -11 4 2 -8 0 -25 -4 -37 -5 -14 -5 -23 2 -23 5 0 12 7
15 15 4 8 15 15 25 15 16 0 17 4 9 26 -7 16 -7 23 0 19 6 -3 10 -13 10 -21 0
-8 7 -14 16 -14 14 0 14 -1 0 -16 -22 -21 -20 -27 6 -18 19 6 21 5 11 -8 -14
-16 0 -38 24 -38 7 0 13 -4 13 -10 0 -5 -8 -7 -17 -3 -10 3 -15 2 -10 -2 4 -5
23 -10 43 -11 29 -3 34 -1 25 10 -9 10 -5 13 19 14 17 0 30 -4 30 -9 0 -5 -4
-9 -9 -9 -5 0 -4 -11 2 -25 7 -14 17 -25 24 -25 6 0 13 -5 15 -12 2 -6 14 -13
26 -14 26 -4 20 22 -6 29 -10 3 -1 5 19 6 48 1 81 -31 42 -42 -10 -3 1 -5 24
-4 23 0 46 -2 49 -6 4 -4 2 -7 -5 -7 -7 0 -9 -4 -6 -10 8 -12 -5 -13 -24 -1
-10 7 -19 4 -26 -6 -14 -19 -47 -10 -39 10 3 10 -4 14 -26 15 -37 1 -38 -5 -5
-18 38 -14 30 -31 -12 -25 -22 3 -33 1 -27 -5 13 -13 63 -20 69 -9 10 15 35
10 29 -6 -4 -8 -1 -15 5 -15 10 0 16 21 12 43 -1 4 8 2 19 -5 11 -7 18 -18 16
-25 -3 -7 -1 -15 5 -18 5 -4 7 -11 4 -16 -4 -5 1 -9 11 -9 11 0 15 6 11 20 -3
13 0 20 9 20 8 0 17 0 21 1 4 0 9 -4 11 -10 2 -7 -3 -8 -14 -4 -13 5 -16 3
-11 -10 3 -8 1 -18 -6 -20 -9 -3 -9 -8 1 -18 9 -9 12 -10 12 -1 0 16 47 15 53
0 3 -9 12 -6 29 10 24 22 44 30 34 13 -3 -5 1 -12 10 -15 24 -9 26 -8 20 14
-3 11 -9 29 -12 40 -3 11 -1 20 4 20 16 0 25 -70 11 -86 -6 -8 -8 -14 -4 -14
4 0 2 -7 -5 -15 -7 -9 -8 -15 -2 -15 5 0 12 7 16 15 3 8 13 15 23 14 16 0 16
-1 -2 -9 l-20 -9 20 0 c28 -1 53 17 39 27 -8 5 -5 13 9 27 11 11 17 14 13 8
-4 -8 -1 -13 9 -13 9 0 13 -4 10 -10 -3 -5 -2 -10 4 -10 5 0 11 5 13 12 3 7 7
5 11 -6 4 -10 3 -15 -3 -11 -11 7 -25 -39 -16 -53 3 -6 -7 -9 -23 -8 -17 1
-28 -2 -25 -6 3 -4 0 -8 -6 -8 -6 0 -8 -4 -5 -10 3 -5 -1 -10 -11 -10 -13 0
-14 -3 -4 -15 6 -8 9 -19 5 -25 -3 -5 1 -10 9 -10 9 0 16 6 16 14 0 8 3 16 8
19 4 2 1 2 -7 0 -9 -2 -11 2 -7 13 3 8 6 18 6 20 0 2 9 4 20 4 16 0 19 -5 17
-22 -2 -13 -2 -17 0 -10 3 6 9 12 14 12 6 0 7 -4 4 -10 -3 -6 1 -7 9 -4 9 3
16 10 16 15 0 4 9 13 20 19 14 7 20 7 20 0 0 -5 -6 -10 -14 -10 -8 0 -12 -9
-10 -26 2 -20 -1 -24 -13 -20 -21 8 -43 -12 -43 -38 1 -18 2 -19 10 -4 6 9 24
19 40 23 17 4 30 11 30 16 0 6 5 7 10 4 6 -3 10 -1 10 6 0 7 8 5 22 -7 19 -17
21 -17 15 -1 -8 22 -5 22 17 -5 13 -15 14 -19 4 -15 -8 3 -21 1 -29 -4 -11 -7
-9 -9 7 -9 15 0 20 -6 20 -22 -1 -14 6 -24 17 -26 9 -2 17 2 17 8 0 6 -4 9 -9
5 -5 -3 -12 -1 -16 5 -3 5 3 10 13 10 15 0 19 5 15 19 -3 11 2 21 11 24 10 4
13 1 9 -9 -7 -20 17 -50 28 -32 4 7 3 18 -3 25 -8 10 -5 13 10 13 16 0 20 5
16 18 -3 9 2 5 11 -10 8 -16 20 -28 25 -28 14 0 12 14 -2 28 -6 6 -9 14 -6 17
3 4 18 -6 32 -22 14 -15 26 -22 26 -15 0 10 3 10 13 0 10 -9 11 -15 3 -24 -6
-6 -13 -8 -16 -3 -3 5 -19 5 -34 1 l-28 -8 26 -12 c15 -7 24 -17 21 -22 -3 -6
-1 -10 5 -10 6 0 13 7 16 15 4 8 11 15 16 15 6 0 4 -7 -3 -16 -12 -15 -11 -16
9 -10 12 4 22 4 21 -1 -5 -28 3 -43 24 -44 20 0 20 -1 3 -8 -17 -7 -18 -8 -3
-14 9 -3 14 -12 12 -19 -4 -9 4 -14 22 -15 24 -1 25 0 8 7 -18 8 -18 9 -2 9
10 1 15 6 12 12 -4 6 -13 8 -21 5 -17 -6 -17 -1 -3 26 10 18 9 20 -9 16 -16
-4 -18 -2 -14 15 4 15 2 18 -8 12 -8 -5 -11 -3 -8 6 3 8 16 14 29 14 15 0 25
7 27 18 4 18 19 22 40 9 9 -7 10 -16 1 -41 -6 -17 -8 -35 -5 -39 4 -3 9 4 13
16 3 13 12 21 22 20 10 -2 16 3 15 14 -1 10 4 14 12 11 8 -3 14 1 14 8 0 10 3
10 12 1 7 -7 20 -12 31 -12 10 0 15 -5 12 -10 -4 -6 -12 -7 -22 -1 -11 6 -21
4 -31 -5 -12 -12 -12 -20 -1 -47 l13 -31 7 24 c7 25 9 20 13 -33 1 -16 9 -33
19 -38 14 -8 15 -14 6 -30 -6 -12 -8 -23 -5 -27 3 -3 6 -1 6 5 0 11 47 5 55
-7 2 -4 -7 -5 -20 -2 -15 2 -25 0 -25 -7 0 -6 8 -11 18 -12 14 0 14 -2 -3 -8
-14 -6 -22 -4 -27 8 -5 11 -7 8 -7 -11 -1 -32 -8 -35 -27 -10 -10 12 -13 13
-14 3 0 -8 8 -19 17 -26 19 -14 46 -9 37 7 -3 5 3 4 15 -4 12 -7 21 -16 21
-20 0 -5 8 -8 18 -8 16 1 16 1 0 11 -11 6 -15 16 -11 27 11 30 43 43 43 17 0
-9 -6 -12 -15 -9 -28 11 -15 -14 15 -30 17 -8 30 -10 30 -5 0 5 -4 9 -10 9 -5
0 -10 7 -10 15 0 20 27 8 33 -16 3 -11 -1 -23 -11 -29 -10 -5 -12 -10 -5 -10
7 0 18 9 25 20 15 23 33 27 24 5 -3 -8 -1 -15 4 -15 6 0 10 7 10 15 0 22 15
18 28 -7 10 -21 11 -21 9 -3 -1 11 -6 23 -12 28 -6 4 -5 10 3 16 11 7 11 9 -2
14 -8 3 -25 -3 -38 -13 -23 -17 -25 -17 -35 -1 -8 13 -6 22 8 40 11 13 19 19
19 14 0 -5 -5 -14 -11 -20 -6 -6 -8 -16 -4 -23 5 -8 14 -5 31 11 13 12 24 17
24 11 0 -7 14 -12 33 -11 17 1 24 3 15 6 -23 6 -24 33 -2 33 9 0 22 8 29 17
11 14 15 15 28 4 9 -7 22 -9 28 -5 8 4 9 3 5 -4 -9 -14 4 -15 24 -2 10 6 11
10 3 10 -7 0 -13 5 -13 10 0 6 5 10 11 10 16 0 39 26 31 35 -4 5 -2 5 5 1 16
-9 56 31 47 46 -4 7 -3 8 4 4 7 -4 12 -15 13 -24 0 -11 4 -9 11 8 6 15 12 20
15 13 6 -17 26 -17 21 -1 -6 18 14 36 34 30 10 -2 18 1 18 7 0 6 -5 11 -11 11
-5 0 -7 5 -4 10 4 6 10 8 15 5 5 -3 19 -1 30 5 16 9 20 8 20 -4 0 -9 -6 -13
-14 -10 -11 4 -13 0 -9 -15 3 -12 10 -24 16 -28 5 -3 7 -2 4 4 -3 5 3 15 13
23 10 8 17 17 14 21 -2 4 0 18 5 31 5 15 5 31 0 41 -12 20 1 23 20 5 11 -11
12 -10 5 2 -5 8 -7 22 -6 30 1 9 -13 23 -32 34 -20 10 -33 23 -29 28 3 6 8 6
13 -1 8 -13 22 1 33 31 4 11 13 15 26 11 12 -3 19 -8 17 -12 -3 -4 5 -8 17 -8
17 -2 18 0 7 7 -8 5 -11 12 -7 16 4 4 1 14 -6 22 -10 13 -9 15 10 10 19 -5 20
-4 10 13 -13 21 -2 38 15 21 18 -18 27 -14 21 8 -3 11 -12 20 -19 20 -8 0 -14
5 -14 10 0 6 7 10 15 10 18 0 19 12 4 27 -8 8 -5 14 11 23 18 9 21 9 15 0 -6
-9 2 -11 29 -8 20 2 36 0 36 -5 0 -4 5 -5 10 -2 6 3 10 -2 10 -12 1 -17 1 -17
15 1 8 10 16 23 17 27 4 11 48 0 48 -12 0 -5 -7 -6 -15 -3 -8 4 -15 2 -15 -3
0 -8 20 -13 60 -15 8 0 23 -8 33 -16 15 -14 20 -14 27 -2 7 11 12 11 23 2 8
-7 23 -9 32 -5 12 4 16 3 11 -5 -9 -15 7 -23 24 -11 10 6 11 9 3 9 -7 0 -13
10 -13 23 0 18 2 19 10 7 8 -13 10 -12 10 3 0 17 -11 22 -24 10 -12 -12 -33
-11 -33 2 0 7 6 11 12 8 15 -5 23 13 20 45 -1 16 2 19 9 12 13 -13 29 -13 21
-1 -3 5 4 12 15 16 16 5 19 12 14 33 -4 15 -8 29 -10 31 -2 2 1 10 8 18 6 8 7
13 2 12 -5 -1 -12 0 -16 1 -5 1 -14 3 -20 4 -7 0 -13 6 -13 11 0 6 -4 16 -8
23 -7 10 -3 11 16 6 22 -5 25 -3 20 15 -8 29 5 26 17 -4 5 -14 14 -25 19 -25
6 0 7 8 4 18 -6 15 -5 15 10 4 9 -8 22 -12 29 -9 9 4 7 6 -3 6 -9 1 -20 8 -23
17 -8 22 -8 26 3 19 5 -3 12 -1 16 5 4 6 11 8 16 5 5 -4 9 -2 9 3 0 5 11 8 26
6 21 -2 23 0 13 12 -9 11 -9 14 1 14 10 0 10 3 0 15 -7 8 -8 15 -3 15 5 0 15
-11 21 -24 6 -13 24 -28 42 -34 17 -6 28 -7 25 -3 -7 12 21 22 43 15 9 -3 5 4
-10 16 -16 12 -28 31 -28 43 0 26 32 49 55 41 8 -4 17 1 21 10 10 27 48 19 68
-15 11 -18 23 -28 32 -25 8 3 14 1 14 -4 0 -6 9 -1 20 10 16 16 25 18 46 10
22 -9 25 -8 20 6 -3 8 -6 19 -6 22 0 4 -5 0 -10 -8 -8 -13 -10 -13 -10 2 0 9
6 19 13 21 6 3 -16 6 -51 6 -40 1 -61 -3 -57 -9 3 -5 1 -10 -4 -10 -6 0 -11 5
-11 10 0 17 -67 12 -74 -6 -3 -8 -11 -12 -17 -8 -8 4 -7 9 2 15 8 5 -682 9
-1584 9 -1506 0 -1598 -1 -1595 -18z m154 -59 c-7 -7 -26 7 -26 19 0 6 6 6 15
-2 9 -7 13 -15 11 -17z m2921 5 c-3 -8 -6 -5 -6 6 -1 11 2 17 5 13 3 -3 4 -12
1 -19z m-2882 2 c3 -5 1 -10 -4 -10 -6 0 -11 5 -11 10 0 6 2 10 4 10 3 0 8 -4
11 -10z m2915 -30 c0 -5 -5 -10 -11 -10 -5 0 -7 5 -4 10 3 6 8 10 11 10 2 0 4
-4 4 -10z m-2830 -10 c0 -5 8 -6 18 -3 15 6 15 5 3 -10 -7 -9 -18 -14 -23 -11
-6 4 -14 0 -19 -7 -7 -11 -9 -10 -9 4 0 9 6 17 13 18 6 0 3 4 -8 9 -19 8 -19
9 3 9 12 1 22 -3 22 -9z m2840 -20 c0 -13 -20 -13 -40 0 -12 8 -9 10 13 10 15
0 27 -4 27 -10z m-2700 -37 c0 -20 -3 -24 -11 -16 -7 7 -9 19 -6 27 10 24 17
19 17 -11z m170 -107 c0 -3 -4 -8 -10 -11 -5 -3 -10 -1 -10 4 0 6 5 11 10 11
6 0 10 -2 10 -4z m-10 -38 c0 -6 -6 -5 -15 2 -8 7 -15 14 -15 16 0 2 7 1 15
-2 8 -4 15 -11 15 -16z m110 2 c-6 -11 -13 -20 -16 -20 -2 0 0 9 6 20 6 11 13
20 16 20 2 0 0 -9 -6 -20z m65 -38 c-6 -7 -34 11 -29 19 3 5 11 3 19 -4 7 -6
12 -13 10 -15z m-50 -2 c4 -6 -1 -7 -11 -3 -13 5 -15 3 -9 -7 5 -9 4 -11 -3
-6 -7 4 -12 11 -12 17 0 12 27 12 35 -1z m112 -56 c-3 -3 -12 -4 -19 -1 -8 3
-5 6 6 6 11 1 17 -2 13 -5z m1923 -8 c0 -2 -7 -7 -16 -10 -8 -3 -12 -2 -9 4 6
10 25 14 25 6z m-1864 -42 c-1 -9 -9 -20 -17 -24 -11 -6 -15 -3 -16 13 -2 17
0 19 7 7 8 -13 10 -12 10 3 0 9 4 17 9 17 5 0 8 -7 7 -16z m100 -35 c16 -17
16 -22 4 -29 -25 -16 -40 -11 -40 12 0 21 0 21 15 2 13 -17 14 -17 15 -2 0 9
-8 22 -17 27 -10 6 -13 11 -7 11 6 0 19 -9 30 -21z m1490 -30 c8 -14 -10 -11
-32 6 -18 13 -18 14 4 8 12 -3 25 -9 28 -14z m-106 -29 c0 -5 -5 -10 -11 -10
-5 0 -7 5 -4 10 3 6 8 10 11 10 2 0 4 -4 4 -10z m40 -10 c0 -5 -5 -10 -11 -10
-5 0 -7 5 -4 10 3 6 8 10 11 10 2 0 4 -4 4 -10z m-1195 -20 c3 -5 2 -10 -4
-10 -5 0 -13 5 -16 10 -3 6 -2 10 4 10 5 0 13 -4 16 -10z m1165 -4 c0 -3 -4
-8 -10 -11 -5 -3 -10 -1 -10 4 0 6 5 11 10 11 6 0 10 -2 10 -4z m-1181 -19 c9
4 13 3 9 -1 -8 -10 -58 -15 -58 -6 0 13 14 20 23 11 5 -5 17 -7 26 -4z m41 -7
c0 -5 -5 -10 -11 -10 -5 0 -7 5 -4 10 3 6 8 10 11 10 2 0 4 -4 4 -10z m170
-20 c0 -5 -2 -10 -4 -10 -3 0 -8 5 -11 10 -3 6 -1 10 4 10 6 0 11 -4 11 -10z
m-80 -10 c0 -5 -4 -10 -10 -10 -5 0 -10 5 -10 10 0 6 5 10 10 10 6 0 10 -4 10
-10z m-50 -14 c-7 -7 -14 -6 -21 1 -9 9 -7 12 9 10 14 -1 18 -5 12 -11z m115
-6 c3 -5 3 -15 -1 -21 -6 -11 -23 6 -24 24 0 10 18 9 25 -3z m-62 -21 c-4 -13
-9 -17 -15 -11 -11 11 -3 32 12 32 4 0 6 -9 3 -21z m32 -9 c3 -5 2 -10 -4 -10
-5 0 -13 5 -16 10 -3 6 -2 10 4 10 5 0 13 -4 16 -10z m-185 -24 c0 -2 -7 -7
-16 -10 -8 -3 -12 -2 -9 4 6 10 25 14 25 6z m607 -18 c-3 -8 -6 -5 -6 6 -1 11
2 17 5 13 3 -3 4 -12 1 -19z m-167 2 c0 -5 -4 -10 -10 -10 -5 0 -10 -7 -10
-17 0 -9 -3 -14 -6 -10 -8 8 5 47 17 47 5 0 9 -4 9 -10z m166 -20 c8 0 14 -8
14 -17 0 -14 -2 -15 -9 -5 -4 8 -12 13 -17 12 -5 0 -10 7 -11 17 -2 10 0 12 3
6 3 -7 12 -13 20 -13z m604 0 c0 -5 -5 -10 -11 -10 -5 0 -7 5 -4 10 3 6 8 10
11 10 2 0 4 -4 4 -10z m-30 -12 c0 -4 -4 -8 -9 -8 -5 0 -16 -3 -24 -6 -8 -3
-17 2 -20 11 -5 12 0 15 23 13 17 -1 30 -6 30 -10z m-783 -4 c-3 -3 -12 -4
-19 -1 -8 3 -5 6 6 6 11 1 17 -2 13 -5z m218 -124 c3 -5 2 -10 -4 -10 -5 0
-13 5 -16 10 -3 6 -2 10 4 10 5 0 13 -4 16 -10z m32 -15 c0 -8 -4 -15 -9 -15
-4 0 -8 7 -8 15 0 8 4 15 8 15 5 0 9 -7 9 -15z m138 -4 c3 -5 1 -12 -5 -16 -5
-3 -10 1 -10 9 0 18 6 21 15 7z m-55 -11 c0 -5 -4 -10 -10 -10 -5 0 -10 5 -10
10 0 6 5 10 10 10 6 0 10 -4 10 -10z m102 -44 c-9 -5 -17 -4 -23 5 -7 11 -11
10 -22 -5 -13 -17 -14 -17 -20 -2 -4 10 -3 15 3 11 6 -3 10 -1 10 6 0 6 8 9
20 6 21 -5 26 2 13 19 -5 5 1 0 13 -11 18 -17 19 -21 6 -29z m-166 29 c-1 -8
-5 -17 -8 -21 -5 -4 -4 16 1 34 3 9 9 -1 7 -13z m44 -30 c-7 -9 -15 -13 -17
-11 -7 7 7 26 19 26 6 0 6 -6 -2 -15z"/>
<path d="M8595 14920 c-3 -5 -1 -10 4 -10 6 0 11 5 11 10 0 6 -2 10 -4 10 -3
0 -8 -4 -11 -10z"/>
<path d="M5165 14899 c-4 -6 -5 -12 -2 -15 2 -3 7 2 10 11 7 17 1 20 -8 4z"/>
<path d="M8740 14895 c-25 -14 -25 -14 13 -13 21 1 34 4 30 7 -4 4 -10 9 -13
13 -3 3 -16 0 -30 -7z"/>
<path d="M5370 14880 c-12 -8 -10 -9 7 -7 12 2 26 6 29 10 11 11 -19 8 -36 -3z"/>
<path d="M5281 14844 c0 -11 3 -14 6 -6 3 7 2 16 -1 19 -3 4 -6 -2 -5 -13z"/>
<path d="M5360 14824 c0 -8 5 -12 10 -9 6 3 10 10 10 16 0 5 -4 9 -10 9 -5 0
-10 -7 -10 -16z"/>
<path d="M5475 14821 c3 -5 -1 -12 -7 -14 -7 -3 -3 -6 10 -6 25 -1 30 14 6 23
-8 3 -13 2 -9 -3z"/>
<path d="M5391 14804 c0 -11 3 -14 6 -6 3 7 2 16 -1 19 -3 4 -6 -2 -5 -13z"/>
<path d="M5421 14797 c-9 -11 -7 -17 6 -28 17 -13 17 -13 3 5 -14 18 -13 18
10 12 14 -4 21 -4 15 1 -5 5 -13 12 -16 16 -3 4 -11 1 -18 -6z"/>
<path d="M5513 14779 c9 -5 17 -17 17 -26 0 -14 2 -15 13 -4 10 10 8 15 -7 27
-11 8 -25 14 -30 14 -6 0 -3 -5 7 -11z"/>
<path d="M5350 14761 c8 -6 18 -7 22 -4 5 2 20 -3 34 -12 24 -16 24 -15 12 5
-9 14 -23 20 -48 20 -25 0 -31 -3 -20 -9z"/>
<path d="M5502 14710 c-9 -15 -10 -25 -2 -38 9 -14 10 -13 4 7 -4 16 -3 21 5
17 7 -4 11 1 11 13 0 26 -2 26 -18 1z"/>
<path d="M5695 14689 c-4 -6 -5 -12 -2 -15 2 -3 7 2 10 11 7 17 1 20 -8 4z"/>
<path d="M5590 14680 c0 -5 5 -10 10 -10 6 0 10 5 10 10 0 6 -4 10 -10 10 -5
0 -10 -4 -10 -10z"/>
<path d="M5750 14635 c0 -2 6 -8 13 -14 10 -8 14 -7 14 2 0 8 -6 14 -14 14 -7
0 -13 -1 -13 -2z"/>
<path d="M5798 14631 c7 -4 14 -17 15 -29 1 -13 5 -18 10 -13 11 11 -9 51 -26
51 -9 0 -8 -3 1 -9z"/>
<path d="M5726 14612 c-2 -4 4 -8 14 -8 10 0 16 4 14 8 -3 4 -9 8 -14 8 -5 0
-11 -4 -14 -8z"/>
<path d="M5862 14564 c-7 -8 -12 -20 -9 -27 2 -7 9 -2 16 11 15 28 11 36 -7
16z"/>
<path d="M7753 14549 c-1 -12 -1 -20 0 -18 2 2 9 12 16 22 11 14 11 17 -1 17
-7 0 -14 -10 -15 -21z"/>
<path d="M9238 14529 c5 -44 10 -46 17 -6 3 13 -1 29 -8 35 -10 8 -12 2 -9
-29z"/>
<path d="M8113 14532 c2 -13 9 -27 16 -32 8 -4 11 -16 6 -29 -4 -13 -2 -21 5
-21 6 0 8 4 5 10 -4 6 4 9 17 7 17 -1 23 3 24 21 1 20 -19 29 -42 20 -3 -2
-12 8 -20 22 -14 25 -14 25 -11 2z"/>
<path d="M9292 14502 l23 -29 6 26 c6 31 1 41 -11 21 -7 -10 -10 -11 -10 -2 0
6 -7 12 -16 12 -12 0 -11 -6 8 -28z"/>
<path d="M6000 14510 c0 -5 5 -10 11 -10 5 0 7 5 4 10 -3 6 -8 10 -11 10 -2 0
-4 -4 -4 -10z"/>
<path d="M9339 14494 c-11 -21 -11 -27 1 -34 20 -13 33 -12 25 0 -3 6 2 10 12
10 14 0 15 2 4 9 -7 5 -11 13 -7 19 3 5 0 12 -8 15 -8 3 -19 -5 -27 -19z"/>
<path d="M8197 14471 c-3 -12 -1 -21 3 -21 15 0 23 21 12 32 -6 6 -11 2 -15
-11z"/>
<path d="M5974 14445 c-4 -9 -4 -19 0 -22 3 -4 6 -1 6 6 0 7 5 9 10 6 6 -3 10
-2 10 4 0 18 -20 23 -26 6z"/>
<path d="M6100 14429 c0 -5 5 -7 10 -4 6 3 10 8 10 11 0 2 -4 4 -10 4 -5 0
-10 -5 -10 -11z"/>
<path d="M6170 14428 c0 -4 4 -8 9 -8 6 0 12 4 15 8 3 5 -1 9 -9 9 -8 0 -15
-4 -15 -9z"/>
<path d="M5995 14410 c-3 -5 -2 -10 4 -10 5 0 18 -3 28 -7 16 -6 16 -5 4 10
-15 19 -27 22 -36 7z"/>
<path d="M6056 14408 c3 -4 11 -5 19 -1 21 7 19 12 -4 10 -11 0 -18 -5 -15 -9z"/>
<path d="M6150 14398 c8 -8 29 -19 45 -22 28 -7 29 -6 10 7 -11 9 -23 13 -28
10 -4 -2 -16 1 -25 8 -15 12 -15 11 -2 -3z"/>
<path d="M6258 14392 c-29 -3 -40 -32 -12 -32 14 0 51 28 43 33 -2 1 -16 1
-31 -1z"/>
<path d="M6306 14387 c3 -10 9 -15 12 -12 3 3 0 11 -7 18 -10 9 -11 8 -5 -6z"/>
<path d="M6136 14363 c-6 -14 -5 -15 5 -6 7 7 10 15 7 18 -3 3 -9 -2 -12 -12z"/>
<path d="M6160 14349 c-13 -9 -13 -10 1 -6 9 3 27 -4 39 -15 13 -12 21 -15 18
-8 -8 24 -41 40 -58 29z"/>
<path d="M6230 14345 c0 -5 5 -17 10 -25 5 -8 10 -10 10 -5 0 6 -5 17 -10 25
-5 8 -10 11 -10 5z"/>
<path d="M9175 14340 c-3 -6 1 -7 9 -4 18 7 21 14 7 14 -6 0 -13 -4 -16 -10z"/>
<path d="M8765 14313 c4 -15 2 -23 -6 -23 -7 0 -10 -3 -6 -6 3 -3 12 -2 20 3
14 7 14 10 0 28 -15 20 -15 20 -8 -2z"/>
<path d="M8502 14308 c-38 -10 -34 -29 4 -22 15 3 23 1 20 -5 -8 -13 4 -42 15
-35 5 3 9 -3 9 -12 0 -10 3 -14 7 -11 7 8 33 -38 33 -59 0 -8 5 -14 10 -14 6
0 10 -6 10 -12 1 -30 30 -52 66 -50 28 2 35 -1 31 -11 -3 -9 5 -20 20 -28 13
-7 29 -21 34 -31 7 -13 17 -16 38 -12 16 3 38 1 50 -5 22 -12 29 -41 9 -41
-16 0 23 -29 40 -30 6 0 12 7 12 16 0 8 4 13 9 9 5 -3 12 -1 15 4 9 14 86 -5
100 -24 12 -16 15 -16 54 10 23 15 42 30 42 32 0 2 -4 2 -9 -1 -5 -4 -11 -1
-13 5 -3 10 -89 45 -128 54 -8 1 -14 8 -12 14 1 6 -4 11 -12 11 -20 0 -24 11
-15 40 l9 25 -4 -27 c-2 -21 2 -27 21 -31 20 -4 21 -2 11 11 -11 13 -10 15 4
9 10 -3 20 -2 24 4 3 6 12 8 20 5 9 -3 11 0 6 12 -6 16 -4 16 21 -1 19 -12 27
-14 27 -5 0 10 2 10 9 0 6 -11 14 -8 36 14 23 23 24 26 7 22 -16 -5 -20 -2
-17 14 3 13 -4 22 -21 28 -14 6 -22 14 -19 20 3 5 1 10 -5 10 -6 0 -9 3 -7 8
3 4 -12 23 -33 43 -39 39 -41 39 -122 4 -10 -4 -18 -3 -18 2 0 5 -6 10 -12 10
-7 0 -25 4 -41 8 -25 7 -28 4 -33 -24 -4 -17 -11 -31 -16 -31 -5 0 -7 -4 -4
-8 2 -4 1 -14 -5 -22 -7 -13 -9 -13 -10 0 -1 8 0 23 1 34 1 11 -3 17 -12 14
-7 -3 -14 -10 -14 -16 -3 -26 -6 -26 -15 -4 -5 13 -18 26 -29 29 -11 3 -20 10
-20 17 0 6 -5 4 -11 -4 -8 -11 -12 -12 -15 -3 -4 10 -8 10 -19 0 -9 -9 -10
-14 -1 -19 7 -5 7 -8 0 -8 -5 0 -20 9 -32 20 -12 11 -27 20 -35 20 -8 0 -18 8
-23 18 -7 16 -14 17 -42 10z m528 -70 c0 -5 -7 -2 -16 6 -8 9 -23 16 -32 16
-14 0 -15 2 -2 10 15 9 50 -13 50 -32z m-200 -28 c0 -5 -4 -10 -10 -10 -5 0
-10 5 -10 10 0 6 5 10 10 10 6 0 10 -4 10 -10z m117 -22 c-3 -8 -6 -5 -6 6 -1
11 2 17 5 13 3 -3 4 -12 1 -19z"/>
<path d="M6240 14262 c0 -4 9 -8 20 -8 11 0 20 4 20 8 0 4 -9 8 -20 8 -11 0
-20 -4 -20 -8z"/>
<path d="M8485 14261 c3 -5 -1 -12 -7 -14 -7 -3 -3 -6 10 -6 25 -1 30 14 6 23
-8 3 -13 2 -9 -3z"/>
<path d="M6421 14228 c-1 -20 14 -24 25 -6 4 6 3 8 -4 4 -5 -3 -13 0 -15 6 -3
8 -6 6 -6 -4z"/>
<path d="M6825 14230 c3 -5 11 -10 16 -10 6 0 7 5 4 10 -3 6 -11 10 -16 10 -6
0 -7 -4 -4 -10z"/>
<path d="M7630 14230 c0 -5 5 -10 10 -10 6 0 10 5 10 10 0 6 -4 10 -10 10 -5
0 -10 -4 -10 -10z"/>
<path d="M6540 14217 c0 -10 8 -17 18 -17 9 0 13 4 7 8 -5 4 -13 11 -17 16 -5
5 -8 2 -8 -7z"/>
<path d="M8525 14220 c-3 -5 -1 -10 4 -10 6 0 11 5 11 10 0 6 -2 10 -4 10 -3
0 -8 -4 -11 -10z"/>
<path d="M6620 14209 c0 -6 -7 -8 -16 -5 -10 4 -14 1 -12 -6 7 -19 51 -15 54
5 1 9 -4 17 -12 17 -8 0 -14 -5 -14 -11z"/>
<path d="M6875 14170 c-3 -5 -1 -10 4 -10 6 0 11 5 11 10 0 6 -2 10 -4 10 -3
0 -8 -4 -11 -10z"/>
<path d="M6635 14158 c11 -6 23 -16 27 -22 5 -8 8 -7 8 1 0 7 -9 17 -19 23
-27 14 -41 12 -16 -2z"/>
<path d="M7518 14153 c7 -3 16 -2 19 1 4 3 -2 6 -13 5 -11 0 -14 -3 -6 -6z"/>
<path d="M6840 14121 c0 -5 9 -13 20 -16 11 -3 20 -10 20 -15 0 -10 38 -1 46
12 3 5 -5 6 -20 2 -19 -4 -28 -2 -32 10 -7 17 -34 22 -34 7z"/>
<path d="M9145 14110 c3 -5 8 -10 11 -10 2 0 4 5 4 10 0 6 -5 10 -11 10 -5 0
-7 -4 -4 -10z"/>
<path d="M6830 14091 c0 -5 7 -12 16 -15 11 -4 13 -12 8 -28 -6 -20 -5 -21 10
-9 14 12 16 11 16 -3 0 -25 35 -3 37 22 1 17 -4 20 -30 20 -17 -1 -33 4 -35
10 -4 14 -22 16 -22 3z"/>
<path d="M7212 13950 c1 -16 6 -30 11 -30 5 0 7 -14 5 -30 -3 -21 -1 -27 5
-21 16 16 15 81 -1 81 -12 0 -12 3 -2 15 10 12 9 15 -4 15 -12 0 -16 -8 -14
-30z"/>
<path d="M8328 13909 c-19 -11 -24 -29 -8 -29 5 0 14 9 20 20 12 23 12 23 -12
9z"/>
<path d="M8410 13909 c0 -6 -4 -8 -9 -5 -14 9 -41 -4 -41 -20 0 -8 -5 -14 -12
-14 -6 0 -9 -2 -7 -5 3 -2 26 6 52 19 31 16 42 26 32 30 -8 3 -15 1 -15 -5z"/>
<path d="M8453 13901 c-1 -12 3 -21 8 -21 6 0 8 -4 4 -9 -3 -5 -1 -12 5 -16
14 -9 12 28 -3 49 -12 16 -13 16 -14 -3z"/>
<path d="M8890 13911 c0 -15 30 -29 51 -24 21 6 26 20 7 20 -7 0 -23 3 -35 7
-14 4 -23 3 -23 -3z"/>
<path d="M7162 13884 c-7 -8 -8 -14 -3 -14 10 0 25 19 20 25 -2 1 -10 -3 -17
-11z"/>
<path d="M8410 13880 c0 -5 5 -10 10 -10 6 0 10 5 10 10 0 6 -4 10 -10 10 -5
0 -10 -4 -10 -10z"/>
<path d="M7105 13860 c3 -5 8 -10 11 -10 2 0 4 5 4 10 0 6 -5 10 -11 10 -5 0
-7 -4 -4 -10z"/>
<path d="M8391 13853 c-1 -14 5 -23 14 -23 8 0 15 7 15 16 0 8 -4 13 -9 10 -5
-4 -12 0 -14 6 -3 7 -6 3 -6 -9z"/>
<path d="M7140 13845 c0 -13 4 -14 20 -5 11 6 20 13 20 15 0 3 -9 5 -20 5 -11
0 -20 -7 -20 -15z"/>
<path d="M8518 13853 c7 -3 16 -2 19 1 4 3 -2 6 -13 5 -11 0 -14 -3 -6 -6z"/>
<path d="M8442 13831 c-3 -7 3 -20 12 -27 10 -7 15 -17 12 -23 -4 -5 10 -18
30 -27 20 -9 38 -23 41 -29 2 -8 17 -11 39 -8 28 4 34 2 33 -14 0 -10 -3 -13
-6 -5 -5 14 -23 17 -23 4 0 -8 51 -36 54 -30 1 2 8 12 16 22 10 13 10 17 3 12
-7 -4 -13 -3 -13 3 0 18 17 21 30 5 10 -11 10 -18 2 -26 -7 -7 -12 -16 -12
-21 0 -5 11 5 25 21 25 30 34 59 15 47 -6 -4 -8 -11 -5 -16 13 -21 -9 -7 -40
25 -25 26 -39 33 -57 29 -16 -3 -19 -2 -10 5 10 7 5 15 -22 36 -19 14 -39 26
-43 25 -4 -1 -10 0 -13 1 -22 8 -63 3 -68 -9z m132 -46 c-4 -8 -10 -15 -15
-15 -4 0 -6 7 -3 15 4 8 10 15 15 15 4 0 6 -7 3 -15z"/>
<path d="M8756 13812 c-3 -5 1 -9 9 -9 8 0 15 4 15 9 0 4 -4 8 -9 8 -6 0 -12
-4 -15 -8z"/>
<path d="M8795 13726 c-11 -6 -23 -15 -26 -19 -4 -5 -15 -7 -25 -5 -11 2 -27
-4 -38 -14 -17 -16 -17 -18 -2 -34 9 -9 19 -14 22 -11 3 2 16 -5 29 -17 17
-15 20 -23 12 -29 -7 -5 -1 -7 16 -4 20 3 32 -1 41 -15 9 -12 15 -15 18 -7 2
6 16 12 31 12 15 0 27 3 27 8 0 4 -14 6 -30 4 -18 -3 -28 0 -25 5 4 6 13 10
21 10 25 0 15 15 -11 16 -14 1 -22 -2 -19 -7 3 -5 -2 -6 -10 -3 -19 7 -21 21
-3 27 9 3 9 7 0 17 -8 9 -9 20 -2 38 12 31 1 44 -26 28z"/>
<path d="M8930 13550 c-9 -6 -10 -10 -3 -10 6 0 15 5 18 10 8 12 4 12 -15 0z"/>
<path d="M9900 13410 c0 -5 5 -10 11 -10 5 0 7 5 4 10 -3 6 -8 10 -11 10 -2 0
-4 -4 -4 -10z"/>
<path d="M9946 13404 c-3 -9 -4 -20 -1 -25 4 -5 -1 -6 -9 -3 -11 4 -16 0 -16
-10 0 -14 -23 -22 -52 -17 -4 0 -5 -5 -2 -13 3 -7 -2 -16 -10 -19 -16 -6 -11
-47 8 -59 8 -5 7 -8 -1 -8 -7 0 -13 -12 -13 -26 0 -20 -4 -25 -16 -20 -8 3
-12 2 -9 -4 3 -6 1 -10 -4 -10 -6 0 -11 -11 -11 -25 0 -14 -4 -25 -10 -25 -5
0 -10 -6 -10 -13 0 -17 -30 -80 -42 -88 -5 -3 -8 -10 -7 -15 4 -22 -2 -35 -13
-28 -7 4 -10 4 -6 0 7 -9 -27 -111 -48 -140 -8 -12 -26 -21 -41 -21 -18 0 -27
-6 -25 -14 1 -7 -6 -15 -17 -18 -19 -5 -20 -11 -5 -61 5 -19 3 -21 -12 -15
-15 5 -14 2 4 -13 23 -19 23 -20 5 -44 -11 -14 -20 -36 -21 -50 -1 -14 -4 -34
-6 -45 -3 -11 -5 -24 -5 -30 -1 -5 -5 -4 -10 4 -11 17 -32 5 -24 -14 3 -8 -1
-15 -8 -15 -7 0 -10 -3 -6 -6 10 -11 -22 -36 -35 -28 -8 5 -7 0 2 -11 13 -16
13 -18 0 -13 -18 6 -20 34 -2 31 6 -2 12 2 12 7 0 6 -8 10 -19 10 -16 0 -35
-30 -32 -52 0 -4 -6 -5 -14 -2 -9 4 -15 0 -15 -10 0 -9 5 -16 10 -16 6 0 10
-5 10 -11 0 -5 -4 -8 -9 -5 -17 11 -22 -27 -6 -44 9 -10 13 -24 9 -35 -5 -13
-4 -16 5 -10 10 6 11 3 2 -14 -10 -19 -8 -26 21 -54 35 -35 39 -45 39 -95 0
-31 -31 -81 -31 -50 0 10 -2 10 -8 0 -6 -9 -13 -7 -30 8 -12 11 -36 22 -54 23
-18 2 -32 8 -31 14 2 7 -5 7 -22 -1 -14 -6 -25 -17 -25 -25 0 -8 -6 -11 -15
-7 -8 3 -15 1 -15 -4 0 -6 -8 -10 -17 -9 -11 0 -13 3 -5 6 20 8 14 22 -8 16
-11 -3 -20 -9 -20 -14 0 -5 -7 -6 -15 -3 -8 4 -15 10 -15 16 0 5 6 6 13 2 6
-4 9 -3 4 1 -13 14 -47 13 -47 -2 0 -8 4 -12 9 -9 5 3 9 -6 10 -19 1 -14 2
-31 2 -37 1 -7 0 -20 -2 -28 -2 -8 2 -14 9 -12 10 2 10 -2 2 -17 -7 -14 -7
-22 1 -26 6 -4 8 -13 5 -21 -3 -8 -1 -14 3 -14 5 0 11 6 14 13 3 9 8 9 18 -2
9 -9 9 -11 2 -7 -15 8 -18 -10 -3 -19 6 -3 10 -11 10 -18 0 -6 -7 -2 -15 9
-13 17 -14 17 -15 2 0 -12 -8 -18 -22 -19 -17 -1 -19 -2 -5 -6 9 -2 17 -9 17
-14 0 -5 7 -9 16 -9 12 0 15 -7 12 -25 -4 -20 -2 -23 7 -15 9 8 15 8 20 0 3
-6 11 -8 16 -5 5 4 9 2 9 -4 0 -5 -4 -13 -10 -16 -5 -3 -10 -11 -10 -16 0 -6
8 -3 18 7 16 17 17 17 21 -7 1 -13 6 -26 10 -29 11 -9 33 -52 23 -46 -6 3 -13
-1 -16 -10 -4 -11 -13 -14 -29 -10 -21 5 -22 2 -23 -49 -1 -30 3 -55 9 -55 5
0 4 -7 -3 -15 -10 -12 -10 -15 1 -15 8 0 6 -5 -6 -14 -10 -7 -19 -22 -20 -32
-4 -31 -16 -54 -27 -48 -6 4 -5 10 3 16 10 6 7 7 -8 3 -16 -5 -23 -2 -23 8 0
8 11 18 25 21 24 6 36 26 15 26 -5 0 -10 -4 -10 -9 0 -10 -14 -9 -42 3 -10 5
-23 6 -30 3 -8 -4 -4 -8 10 -13 14 -4 21 -12 18 -20 -3 -7 1 -20 9 -28 20 -20
19 -26 -5 -26 -12 0 -24 -10 -30 -22 -5 -13 -9 -18 -9 -11 -1 6 -4 19 -8 29
-5 13 -3 15 7 9 9 -5 11 -4 6 4 -4 6 -13 8 -19 4 -7 -4 -24 -6 -38 -5 -22 3
-26 0 -24 -20 4 -38 5 -39 16 -32 8 4 9 0 4 -15 -5 -15 -2 -21 10 -21 9 0 13
-5 10 -10 -3 -6 5 -14 19 -20 15 -5 26 -17 26 -27 0 -13 -2 -15 -9 -5 -6 10
-10 10 -20 -2 -8 -10 -9 -16 -1 -21 5 -3 10 -3 10 1 0 3 7 1 15 -6 16 -13 21
-55 5 -45 -5 3 -7 13 -4 23 5 15 4 15 -6 -1 -9 -14 -9 -22 2 -35 12 -15 11
-16 -4 -3 -13 9 -18 10 -18 2 0 -7 -5 -9 -10 -6 -6 4 -18 1 -27 -7 -15 -12
-15 -11 -2 10 8 12 20 20 26 17 7 -2 13 0 13 5 0 12 -16 21 -24 13 -8 -8 -34
-14 -59 -14 -22 0 -58 -29 -51 -41 6 -9 -8 -11 -43 -8 -13 1 -23 -4 -23 -10 0
-6 5 -8 10 -5 6 3 10 -1 10 -9 0 -14 3 -14 22 -4 12 7 31 21 42 31 13 11 22
14 24 7 3 -8 8 -8 17 0 10 8 14 4 17 -15 4 -17 1 -25 -8 -25 -10 0 -8 -6 6
-20 22 -22 35 -27 24 -8 -4 7 -3 8 5 4 6 -4 9 -12 6 -17 -4 -5 1 -9 10 -9 11
0 15 5 11 15 -3 8 -1 15 4 15 6 0 10 -3 11 -7 0 -5 2 -16 4 -26 3 -14 -1 -16
-17 -11 -14 4 -18 2 -14 -5 7 -11 -1 -14 -39 -13 -16 1 -16 0 -3 -4 11 -3 15
-11 11 -21 -4 -10 -2 -14 5 -9 6 3 13 2 17 -4 3 -5 16 -10 28 -9 12 0 16 3 10
6 -7 2 -13 9 -13 14 0 5 9 4 20 -3 19 -12 19 -14 4 -25 -15 -11 -15 -13 0 -28
20 -20 20 -21 2 -28 -11 -4 -13 -1 -9 10 4 11 2 14 -5 9 -8 -4 -12 0 -12 10 0
17 -1 17 -12 1 -15 -19 -33 -11 -41 18 -4 12 -5 9 -4 -10 2 -25 7 -31 30 -33
20 -3 27 -8 25 -20 -2 -9 -10 -17 -17 -17 -8 0 -16 -6 -18 -12 -3 -7 0 -13 7
-13 6 0 8 -5 5 -10 -4 -6 -10 -8 -15 -5 -5 3 -10 0 -13 -7 -2 -7 -3 -5 -1 5 2
15 -2 18 -19 13 -12 -4 -30 -9 -41 -11 -26 -6 -33 -15 -12 -15 9 0 14 -5 11
-10 -4 -6 -9 -9 -13 -6 -4 2 -16 -1 -27 -5 -14 -7 -9 -8 19 -5 22 3 44 11 49
18 6 10 7 8 3 -4 -2 -9 0 -19 7 -21 7 -2 1 -2 -13 0 -22 3 -23 2 -9 -10 9 -7
19 -21 22 -32 4 -18 5 -18 6 3 1 14 7 22 19 22 29 0 34 -12 12 -27 -25 -17
-26 -30 -2 -36 14 -3 13 -6 -8 -15 -14 -6 -18 -11 -10 -11 11 -1 11 -4 2 -13
-18 -18 -15 -38 6 -39 14 0 14 -2 -3 -9 -19 -8 -19 -9 3 -9 12 -1 22 -6 22
-12 0 -5 4 -8 9 -5 5 4 7 -4 3 -16 -3 -14 -2 -19 6 -14 13 8 16 46 4 46 -12 0
-12 39 0 46 7 4 8 2 4 -4 -4 -7 3 -30 15 -52 24 -43 41 -53 32 -20 -3 11 -1
20 4 20 5 0 10 -11 11 -25 1 -18 -3 -25 -16 -26 -13 0 -14 -2 -2 -6 17 -7 40
-29 40 -39 0 -3 -7 -1 -15 6 -8 6 -19 9 -25 5 -5 -3 -10 0 -10 7 -1 7 -9 3
-20 -11 -11 -12 -17 -27 -14 -32 3 -5 -5 -9 -18 -10 -13 0 -17 -3 -10 -6 10
-4 9 -8 -5 -19 -24 -18 -34 -17 -26 3 5 12 2 15 -10 10 -9 -3 -17 -2 -17 3 0
6 -5 10 -10 10 -6 0 -10 -6 -9 -12 3 -28 -2 -38 -18 -38 -13 0 -15 -2 -5 -8
17 -11 5 -42 -17 -43 -10 0 -11 -2 -3 -6 6 -2 12 -9 12 -14 0 -6 -4 -8 -9 -5
-5 3 -12 -1 -15 -10 -9 -23 -8 -24 17 -24 18 0 19 -2 7 -10 -13 -8 -13 -10 3
-11 31 -3 35 -4 44 -13 5 -5 3 -6 -4 -2 -7 4 -13 2 -13 -4 0 -13 19 -34 40
-43 8 -4 0 -4 -18 -1 -31 5 -33 4 -31 -18 2 -12 -1 -29 -5 -37 -6 -10 -5 -12
2 -7 8 5 12 0 12 -13 0 -52 42 -73 54 -26 4 14 11 25 17 25 6 0 7 -4 4 -10 -3
-5 0 -10 7 -10 10 0 10 -2 -1 -9 -8 -5 -10 -14 -6 -21 5 -9 4 -11 -3 -6 -8 5
-12 0 -12 -13 0 -26 39 -25 58 2 7 9 19 17 27 17 7 0 16 6 18 13 3 7 6 5 6 -5
1 -12 -6 -18 -19 -18 -11 0 -20 -4 -20 -9 0 -5 9 -11 20 -14 23 -6 27 -27 5
-27 -8 0 -15 -4 -15 -9 0 -14 28 -33 40 -26 5 3 10 0 10 -8 0 -8 7 -20 16 -27
8 -8 19 -21 25 -31 7 -15 6 -17 -6 -13 -8 4 -15 1 -15 -5 0 -7 -9 -5 -25 5
-23 15 -25 15 -25 0 0 -9 5 -16 11 -16 5 0 8 -4 4 -9 -11 -19 17 -23 36 -5 11
10 19 12 19 5 0 -7 11 -9 29 -6 17 3 32 1 35 -3 3 -5 -5 -8 -17 -7 -12 1 -32
-5 -44 -14 -28 -20 -30 -50 -4 -48 11 0 17 6 14 14 -8 21 50 16 70 -7 16 -19
15 -20 -8 -26 -14 -3 -25 -10 -25 -15 0 -5 12 -4 26 1 34 13 53 13 34 -1 -11
-8 -5 -9 23 -4 26 4 42 2 52 -8 8 -8 11 -17 8 -21 -3 -3 -12 2 -18 11 -10 14
-16 15 -27 5 -8 -6 -18 -9 -21 -5 -4 3 -7 2 -7 -4 0 -6 7 -13 15 -17 8 -3 14
0 12 6 -1 6 5 13 13 16 8 2 12 1 8 -3 -4 -4 0 -14 8 -23 14 -13 17 -13 25 -1
5 9 9 10 9 2 0 -6 -7 -19 -16 -27 -9 -9 -11 -16 -4 -16 6 0 8 -4 5 -10 -3 -5
-1 -10 4 -10 6 0 11 6 11 14 0 23 19 29 36 12 10 -10 11 -16 4 -16 -7 0 -9 -7
-6 -16 4 -12 1 -14 -14 -9 -11 4 -20 2 -20 -4 0 -6 -7 -7 -17 -4 -11 4 -14 3
-9 -6 4 -6 16 -9 27 -6 11 4 19 2 19 -4 0 -6 5 -11 11 -11 5 0 8 3 6 8 -2 4 5
16 16 26 17 16 19 17 14 3 -3 -9 -2 -17 3 -17 12 0 9 -22 -4 -31 -13 -10 4
-31 20 -25 8 3 11 0 7 -10 -3 -10 0 -12 10 -8 8 3 18 1 22 -5 8 -14 35 -14 35
-1 0 6 -9 10 -20 10 -11 0 -20 5 -20 10 0 6 5 10 10 10 6 0 10 9 10 20 0 17 2
19 14 8 8 -7 10 -14 5 -16 -5 -2 -9 -8 -9 -13 0 -6 4 -7 10 -4 5 3 17 2 26 -3
11 -6 13 -11 5 -16 -6 -4 -11 -4 -11 0 0 3 -9 -4 -20 -17 -16 -20 -21 -21 -29
-10 -10 16 -46 7 -36 -10 4 -5 9 -8 12 -5 3 2 15 1 28 -4 13 -5 26 -6 30 -2 8
9 75 9 75 1 0 -4 -11 -9 -25 -11 -14 -3 -25 -1 -25 3 0 5 -4 9 -10 9 -5 0 -10
-5 -10 -10 0 -15 52 -62 59 -54 3 4 0 9 -7 11 -6 3 -9 9 -6 14 3 6 12 2 20 -8
9 -12 13 -13 14 -5 0 7 5 10 12 6 17 -11 -20 -34 -55 -34 -22 0 -28 4 -23 15
3 8 1 15 -4 15 -5 0 -18 9 -29 21 -10 11 -25 21 -32 23 -8 1 -23 7 -34 13 -21
11 -45 7 -45 -7 0 -4 10 -6 22 -2 14 3 19 2 14 -6 -4 -7 -1 -12 8 -12 9 0 17
-4 17 -10 1 -5 2 -16 3 -22 4 -24 -6 -29 -21 -11 -13 16 -14 16 -9 1 3 -10 1
-20 -4 -23 -6 -4 -10 -14 -10 -23 0 -15 2 -15 11 -2 9 12 10 11 6 -7 -3 -16
-1 -20 10 -16 7 3 13 2 11 -3 -2 -5 0 -10 5 -11 16 -6 19 -2 7 12 -8 9 -9 24
-4 42 11 42 11 42 13 53 0 6 5 10 11 10 5 0 7 -7 3 -16 -4 -10 1 -17 16 -21
26 -7 26 -15 1 -38 -11 -10 -19 -29 -19 -44 2 -24 2 -24 6 -3 5 28 42 50 53
32 4 -7 13 -9 19 -6 6 4 8 12 5 18 -4 7 -2 8 4 4 6 -4 22 -2 34 4 21 10 21 10
5 -3 -10 -8 -19 -30 -21 -49 -2 -19 -6 -40 -9 -45 -4 -6 -4 -25 -1 -42 5 -25
11 -31 32 -31 25 0 25 1 6 15 -19 14 -19 14 2 15 12 0 24 7 28 15 3 8 1 15 -4
15 -6 0 -10 -4 -10 -9 0 -12 -39 -21 -46 -10 -3 5 2 12 10 15 11 4 13 11 7 23
-6 10 -6 23 0 32 8 14 10 12 13 -13 0 -7 11 -14 24 -16 12 -2 22 -8 22 -13 0
-5 7 -9 16 -9 8 0 12 -4 9 -10 -6 -10 7 -14 34 -11 8 2 10 -2 5 -11 -6 -10 -5
-11 7 -1 12 10 15 7 17 -15 1 -18 -1 -23 -7 -14 -6 11 -10 10 -15 -4 -4 -10
-1 -21 6 -25 8 -5 4 -11 -15 -18 -15 -6 -27 -16 -26 -23 0 -10 2 -10 6 0 2 6
12 12 21 11 11 0 12 -2 5 -6 -7 -2 -13 -14 -12 -26 0 -20 1 -20 8 -4 4 10 11
19 16 20 6 1 9 5 8 9 -7 20 24 4 52 -27 22 -23 43 -35 63 -37 32 -2 34 -18 2
-18 -20 0 -33 -13 -23 -24 3 -3 12 -1 19 5 11 9 12 4 9 -22 -2 -18 0 -38 4
-44 5 -5 11 -19 14 -30 4 -19 5 -18 6 2 0 12 -4 34 -9 48 -13 35 -3 51 19 31
15 -14 17 -13 19 14 1 15 -5 35 -13 43 -19 20 -19 28 0 21 10 -4 15 0 15 15 0
12 -4 21 -10 21 -5 0 -10 5 -10 11 0 5 5 7 10 4 6 -3 10 -2 10 4 0 5 -6 12
-12 14 -10 4 -10 6 0 6 9 1 12 293 12 1427 0 885 -4 1423 -9 1419 -6 -3 -14 3
-20 12 -5 10 -12 17 -15 16 -18 -5 -46 12 -46 28 0 24 25 24 48 1 10 -10 24
-16 30 -14 9 3 12 151 12 609 l0 605 -24 -4 c-17 -4 -23 -1 -19 9 3 7 3 13 0
13 -3 0 -8 -7 -11 -16z m-751 -1334 c3 -5 1 -10 -4 -10 -6 0 -11 5 -11 10 0 6
2 10 4 10 3 0 8 -4 11 -10z m97 -207 c-5 -15 -22 -17 -22 -3 0 6 6 10 13 11 8
0 8 2 1 5 -6 3 -9 16 -6 32 l6 27 6 -30 c4 -16 4 -36 2 -42z m48 23 c0 -3 -4
-8 -10 -11 -5 -3 -10 -1 -10 4 0 6 5 11 10 11 6 0 10 -2 10 -4z m-50 -331 c0
-8 -7 -15 -16 -15 -14 0 -14 3 -4 15 7 8 14 15 16 15 2 0 4 -7 4 -15z m-220
-111 c0 -8 -5 -12 -10 -9 -6 4 -8 11 -5 16 9 14 15 11 15 -7z m90 -60 c0 -8
-4 -12 -10 -9 -5 3 -10 10 -10 16 0 5 5 9 10 9 6 0 10 -7 10 -16z m36 -192
c-9 -8 -14 0 -21 33 l-6 30 16 -28 c9 -16 14 -31 11 -35z m-24 -44 l-5 -33 -8
28 c-4 16 -5 35 -3 42 3 7 1 16 -5 20 -7 3 -11 -3 -11 -15 0 -23 -31 -25 -36
-2 -1 7 0 8 3 2 8 -17 20 -11 27 13 l6 22 19 -22 c12 -15 16 -31 13 -55z m69
55 c13 -16 12 -17 -3 -4 -17 13 -22 21 -14 21 2 0 10 -8 17 -17z m-61 -167
c-7 -7 -15 -5 -22 3 -10 11 -10 13 0 7 7 -5 12 -1 12 11 0 15 2 16 10 3 6 -9
6 -18 0 -24z m39 -83 c2 -2 -3 -3 -11 -3 -9 0 -19 7 -22 16 -6 15 -4 15 11 3
10 -7 20 -15 22 -16z m-64 -43 c3 -5 -4 -6 -15 -3 -11 3 -22 9 -25 13 -3 5 4
6 15 3 11 -3 22 -9 25 -13z m132 -2 c-3 -8 -6 -5 -6 6 -1 11 2 17 5 13 3 -3 4
-12 1 -19z m-184 -50 c-8 -14 -19 -8 -20 12 -1 16 1 17 12 7 7 -6 11 -15 8
-19z m171 16 c6 -15 4 -15 -11 -3 -10 7 -20 15 -22 16 -2 2 3 3 11 3 9 0 19
-7 22 -16z m-74 -90 c0 -8 -19 -13 -24 -6 -3 5 1 9 9 9 8 0 15 -2 15 -3z
m-130 -49 c0 -8 -4 -15 -10 -15 -5 0 -7 7 -4 15 4 8 8 15 10 15 2 0 4 -7 4
-15z m114 -47 c-3 -4 -11 -8 -17 -8 -7 0 -6 4 3 10 11 7 5 10 -25 11 l-40 2
35 6 c33 6 54 -4 44 -21z m-169 -198 c3 -5 1 -10 -4 -10 -6 0 -11 5 -11 10 0
6 2 10 4 10 3 0 8 -4 11 -10z m88 -7 c-7 -2 -19 -2 -25 0 -7 3 -2 5 12 5 14 0
19 -2 13 -5z m-33 -30 c0 -17 -23 -29 -28 -15 -2 7 -10 12 -18 12 -9 0 -13 4
-10 9 8 13 56 8 56 -6z m-75 -13 c3 -5 1 -10 -4 -10 -6 0 -11 5 -11 10 0 6 2
10 4 10 3 0 8 -4 11 -10z m53 -45 c-3 -3 -9 2 -12 12 -6 14 -5 15 5 6 7 -7 10
-15 7 -18z m112 9 c0 -11 -6 -14 -22 -8 -20 6 -21 5 -10 -9 11 -13 10 -15 -8
-10 -16 4 -19 2 -14 -13 5 -15 4 -16 -5 -8 -18 16 8 56 32 50 9 -2 17 0 17 5
0 5 2 9 5 9 3 0 5 -7 5 -16z m-155 -24 c3 -6 -1 -7 -9 -4 -18 7 -21 14 -7 14
6 0 13 -4 16 -10z m169 -24 c-3 -9 -10 -16 -15 -16 -5 0 -4 9 3 20 14 22 21
20 12 -4z m-120 -2 c3 -8 2 -12 -4 -9 -6 3 -10 10 -10 16 0 14 7 11 14 -7z
m176 -29 c0 5 5 4 12 -3 9 -9 9 -15 -1 -24 -10 -11 -11 -10 -6 3 6 17 -23 18
-96 4 -28 -6 -37 -4 -42 9 -3 8 -2 18 3 21 6 4 10 0 10 -7 0 -8 10 -14 21 -15
20 -2 21 -1 3 12 -11 7 -15 17 -11 22 5 4 13 0 18 -10 11 -19 39 -23 39 -6 0
6 6 9 14 6 10 -4 13 1 10 16 -3 15 0 13 10 -8 9 -16 15 -26 16 -20z m-172 -5
c8 0 13 -3 9 -6 -10 -10 -48 7 -40 19 5 8 8 8 11 -1 2 -7 11 -12 20 -12z m347
0 c3 -6 -1 -7 -9 -4 -18 7 -21 14 -7 14 6 0 13 -4 16 -10z m-345 -65 c6 -4 18
1 25 11 13 17 16 17 25 4 5 -8 10 -10 10 -3 0 6 8 9 18 6 10 -2 19 -11 19 -18
0 -10 -5 -11 -15 -6 -9 5 -35 2 -63 -7 -35 -11 -49 -22 -54 -39 -3 -14 -10
-21 -16 -17 -8 5 -8 9 1 14 13 8 3 60 -11 60 -5 0 -9 4 -9 9 0 10 48 0 70 -14z
m155 15 c3 -5 1 -10 -4 -10 -6 0 -11 5 -11 10 0 6 2 10 4 10 3 0 8 -4 11 -10z
m-85 -40 c0 -5 -5 -10 -11 -10 -5 0 -7 5 -4 10 3 6 8 10 11 10 2 0 4 -4 4 -10z
m-27 -55 c-7 -21 -13 -19 -13 6 0 11 4 18 10 14 5 -3 7 -12 3 -20z m177 -45
c0 -5 -2 -10 -4 -10 -3 0 -8 5 -11 10 -3 6 -1 10 4 10 6 0 11 -4 11 -10z m100
-70 c0 -5 -4 -10 -10 -10 -5 0 -10 5 -10 10 0 6 5 10 10 10 6 0 10 -4 10 -10z
m-145 -10 c3 -5 1 -10 -4 -10 -6 0 -11 5 -11 10 0 6 2 10 4 10 3 0 8 -4 11
-10z m25 -54 c0 -3 -4 -8 -10 -11 -5 -3 -10 -1 -10 4 0 6 5 11 10 11 6 0 10
-2 10 -4z m56 -15 c26 -20 22 -36 -6 -21 -17 9 -35 40 -24 40 3 0 17 -8 30
-19z m47 -16 c-3 -9 -8 -14 -10 -11 -3 3 -2 9 2 15 9 16 15 13 8 -4z m141 -40
c-3 -7 -13 -16 -22 -20 -14 -5 -14 -4 1 13 9 10 14 22 10 27 -5 4 -3 5 4 1 7
-4 10 -13 7 -21z m-134 -11 c0 -8 5 -12 10 -9 6 3 10 1 10 -4 0 -6 -4 -11 -10
-11 -5 0 -13 -1 -17 -2 -3 -2 -7 7 -8 20 -1 12 2 22 7 22 4 0 8 -7 8 -16z m99
-73 c10 -7 7 -9 -12 -8 -15 1 -27 5 -27 10 0 10 22 9 39 -2z m-9 -31 c0 -5 -5
-10 -11 -10 -5 0 -7 5 -4 10 3 6 8 10 11 10 2 0 4 -4 4 -10z m86 -115 c-3 -9
-10 -13 -16 -10 -6 4 -5 11 3 20 15 16 22 11 13 -10z m51 -151 c-3 -3 -12 -4
-19 -1 -8 3 -5 6 6 6 11 1 17 -2 13 -5z m148 -44 c-3 -4 1 -11 7 -13 7 -3 0
-6 -17 -6 -25 0 -27 1 -12 10 9 6 14 15 11 21 -4 7 -2 8 5 4 6 -4 9 -11 6 -16z
m85 -66 c0 -3 -7 -12 -15 -21 -20 -19 -32 -10 -14 11 14 15 29 21 29 10z m25
-44 c3 -5 -1 -10 -9 -10 -9 0 -16 5 -16 10 0 6 4 10 9 10 6 0 13 -4 16 -10z
m-18 -102 c-3 -8 -6 -5 -6 6 -1 11 2 17 5 13 3 -3 4 -12 1 -19z m123 2 c0 -4
-9 -10 -20 -13 -11 -3 -20 0 -20 6 0 7 -5 5 -10 -3 -6 -9 -10 -10 -10 -3 0 7
8 16 17 21 18 10 43 5 43 -8z m-26 -40 c17 -6 24 -14 20 -25 -3 -8 -10 -15
-15 -15 -4 0 -6 7 -2 16 5 13 2 15 -15 9 -16 -5 -22 -2 -22 9 0 19 1 19 34 6z"/>
<path d="M9541 12784 c0 -11 3 -14 6 -6 3 7 2 16 -1 19 -3 4 -6 -2 -5 -13z"/>
<path d="M9416 12493 c-6 -14 -5 -15 5 -6 7 7 10 15 7 18 -3 3 -9 -2 -12 -12z"/>
<path d="M9101 12154 c0 -11 3 -14 6 -6 3 7 2 16 -1 19 -3 4 -6 -2 -5 -13z"/>
<path d="M9120 12094 c0 -14 -3 -14 -16 -3 -13 10 -17 10 -24 -1 -11 -18 -8
-21 24 -24 26 -3 53 24 39 38 -12 11 -23 6 -23 -10z"/>
<path d="M9122 11881 c-11 -7 -11 -9 1 -14 9 -3 18 1 21 9 6 16 -2 18 -22 5z"/>
<path d="M9146 11825 c-3 -8 -1 -15 4 -15 6 0 10 7 10 15 0 8 -2 15 -4 15 -2
0 -6 -7 -10 -15z"/>
<path d="M9039 11802 c-1 -4 0 -17 0 -29 2 -13 -5 -23 -16 -26 -10 -3 0 -3 22
0 41 6 66 25 40 31 -8 2 -15 7 -15 12 0 10 -30 22 -31 12z m31 -27 c10 -12 10
-15 -4 -15 -9 0 -16 7 -16 15 0 8 2 15 4 15 2 0 9 -7 16 -15z"/>
<path d="M8966 11774 c-4 -11 -1 -14 11 -12 9 2 18 9 21 16 6 18 -25 15 -32
-4z"/>
<path d="M8970 11744 c0 -3 7 -12 15 -20 16 -17 18 -14 9 10 -6 15 -24 23 -24
10z"/>
<path d="M9075 11730 c-3 -5 -3 -10 2 -10 4 0 1 -5 -7 -10 -12 -8 -12 -10 -1
-10 9 0 11 -7 8 -21 l-6 -21 20 20 c23 25 24 36 5 51 -10 8 -16 9 -21 1z m25
-20 c0 -5 -5 -10 -11 -10 -5 0 -7 5 -4 10 3 6 8 10 11 10 2 0 4 -4 4 -10z"/>
<path d="M9010 11720 c0 -5 5 -10 10 -10 6 0 10 5 10 10 0 6 -4 10 -10 10 -5
0 -10 -4 -10 -10z"/>
<path d="M9162 11721 c-11 -6 -10 -10 4 -15 9 -3 19 -4 22 -1 3 3 0 5 -7 5 -7
0 -9 5 -6 10 7 12 4 12 -13 1z"/>
<path d="M8940 11695 c0 -8 4 -15 10 -15 5 0 7 7 4 15 -4 8 -8 15 -10 15 -2 0
-4 -7 -4 -15z"/>
<path d="M9037 11703 c-12 -11 -8 -41 6 -46 6 -2 8 -8 4 -13 -5 -5 -19 3 -33
19 -22 26 -24 27 -24 7 0 -12 -4 -19 -9 -15 -5 3 -13 0 -17 -6 -5 -9 1 -10 24
-6 21 4 34 1 43 -9 15 -19 4 -31 -15 -15 -11 9 -15 8 -20 -5 -4 -9 -4 -19 -1
-22 3 -3 5 0 5 7 0 8 7 10 20 6 26 -8 46 36 30 66 -6 11 -8 24 -5 29 7 11 2
13 -8 3z"/>
<path d="M9064 11625 c-8 -13 -13 -29 -10 -34 4 -5 2 -12 -4 -16 -5 -3 -10 -1
-10 4 0 6 -5 11 -11 11 -8 0 -8 -4 0 -14 9 -11 9 -15 0 -18 -8 -3 -9 -9 -4
-18 6 -10 10 -8 17 10 8 22 9 23 22 4 8 -10 18 -16 22 -11 4 4 -1 14 -12 22
-19 14 -11 20 23 16 6 -1 14 3 18 9 3 5 -3 10 -13 10 -26 0 -36 27 -14 39 9 6
11 11 5 11 -7 0 -20 -11 -29 -25z"/>
<path d="M9201 11636 c-9 -11 -9 -16 0 -22 8 -4 9 -3 5 4 -7 11 6 17 27 13 5
-1 6 3 2 9 -9 14 -20 13 -34 -4z"/>
<path d="M8966 11614 c-9 -24 -2 -26 12 -4 7 11 8 20 3 20 -5 0 -12 -7 -15
-16z"/>
<path d="M9098 11623 c7 -3 16 -2 19 1 4 3 -2 6 -13 5 -11 0 -14 -3 -6 -6z"/>
<path d="M9178 11583 c7 -3 16 -2 19 1 4 3 -2 6 -13 5 -11 0 -14 -3 -6 -6z"/>
<path d="M9120 11570 c-24 -8 -23 -8 8 -9 17 -1 32 4 32 9 0 11 -5 11 -40 0z"/>
<path d="M9175 11560 c-3 -5 1 -10 9 -10 9 0 16 5 16 10 0 6 -4 10 -9 10 -6 0
-13 -4 -16 -10z"/>
<path d="M8941 11524 c0 -11 3 -14 6 -6 3 7 2 16 -1 19 -3 4 -6 -2 -5 -13z"/>
<path d="M9070 11511 c0 -11 5 -23 10 -26 6 -4 10 5 10 19 0 14 -4 26 -10 26
-5 0 -10 -9 -10 -19z"/>
<path d="M8910 11509 c0 -5 5 -7 10 -4 6 3 10 8 10 11 0 2 -4 4 -10 4 -5 0
-10 -5 -10 -11z"/>
<path d="M8990 11513 c0 -15 18 -35 23 -27 3 5 -1 15 -9 22 -8 7 -14 9 -14 5z"/>
<path d="M9120 11510 c0 -5 5 -10 10 -10 6 0 10 5 10 10 0 6 -4 10 -10 10 -5
0 -10 -4 -10 -10z"/>
<path d="M8913 11363 c-3 -10 -8 -22 -11 -27 -3 -5 0 -6 5 -3 11 7 25 47 17
47 -3 0 -7 -8 -11 -17z"/>
<path d="M8835 11350 c-3 -5 -1 -10 4 -10 6 0 11 5 11 10 0 6 -2 10 -4 10 -3
0 -8 -4 -11 -10z"/>
<path d="M8956 11333 c5 -5 12 -12 16 -18 4 -6 8 -2 8 8 0 9 -7 17 -17 17 -9
0 -12 -3 -7 -7z"/>
<path d="M8952 11300 c0 -14 2 -19 5 -12 2 6 2 18 0 25 -3 6 -5 1 -5 -13z"/>
<path d="M8978 11263 c7 -3 16 -2 19 1 4 3 -2 6 -13 5 -11 0 -14 -3 -6 -6z"/>
<path d="M8865 11201 c13 -14 13 -16 -3 -26 -14 -8 -16 -17 -11 -40 4 -16 7
-22 8 -12 1 15 6 17 31 12 19 -4 30 -3 30 4 0 11 -21 15 -49 11 -11 -1 -10 2
3 15 23 23 21 51 -4 51 -18 0 -18 -2 -5 -15z"/>
<path d="M8820 11200 c8 -5 20 -10 25 -10 6 0 3 5 -5 10 -8 5 -19 10 -25 10
-5 0 -3 -5 5 -10z"/>
<path d="M8967 11172 c-22 -11 -26 -17 -18 -25 9 -9 14 -9 20 1 6 9 11 9 25
-1 16 -12 16 -15 2 -42 -11 -20 -16 -24 -16 -12 0 10 -7 17 -17 17 -15 0 -16
-2 -3 -10 9 -6 10 -10 3 -10 -6 0 -19 -3 -29 -7 -13 -5 -15 -3 -9 8 6 10 5 11
-4 3 -8 -7 -9 -19 -3 -34 l9 -24 5 22 c4 12 11 22 17 22 13 0 10 -22 -4 -32
-6 -4 -2 -8 8 -8 9 0 17 7 17 15 0 8 4 15 10 15 5 0 6 -8 3 -17 -5 -12 -2 -15
10 -10 12 4 14 2 10 -11 -5 -16 -4 -16 13 0 18 17 18 18 -1 34 -14 10 -16 17
-8 20 7 3 9 12 6 21 -5 13 -3 13 15 4 26 -14 43 -14 20 0 -10 5 -18 16 -18 23
0 8 -12 17 -27 21 -28 7 -28 7 -5 16 12 4 22 10 22 12 0 8 -26 2 -53 -11z"/>
<path d="M8884 11102 c3 -5 0 -12 -6 -15 -7 -2 -10 -7 -7 -11 3 -4 12 0 18 8
9 11 9 16 0 22 -7 4 -9 3 -5 -4z"/>
<path d="M8890 11049 c0 -5 5 -7 10 -4 6 3 10 8 10 11 0 2 -4 4 -10 4 -5 0
-10 -5 -10 -11z"/>
<path d="M9060 11030 c0 -5 5 -10 10 -10 6 0 10 5 10 10 0 6 -4 10 -10 10 -5
0 -10 -4 -10 -10z"/>
<path d="M8910 11015 c0 -8 4 -15 9 -15 5 0 14 7 21 15 10 13 9 15 -9 15 -12
0 -21 -6 -21 -15z"/>
<path d="M8970 11010 c0 -5 5 -10 11 -10 5 0 7 5 4 10 -3 6 -8 10 -11 10 -2 0
-4 -4 -4 -10z"/>
<path d="M8943 10975 c1 -19 4 -30 8 -24 5 8 8 8 13 0 4 -6 4 -15 1 -21 -3 -5
-1 -10 4 -10 6 0 11 9 11 20 0 11 5 20 10 20 6 0 10 -5 10 -11 0 -6 7 -3 17 6
13 14 14 18 3 25 -15 9 -40 2 -40 -12 0 -5 -4 -6 -10 -3 -5 3 -10 15 -10 26 0
10 -4 19 -9 19 -5 0 -9 -16 -8 -35z"/>
<path d="M8886 10971 c-4 -5 3 -7 14 -4 23 6 26 13 6 13 -8 0 -17 -4 -20 -9z"/>
<path d="M9050 10960 c0 -5 4 -10 9 -10 6 0 13 5 16 10 3 6 -1 10 -9 10 -9 0
-16 -4 -16 -10z"/>
<path d="M8935 10700 c-3 -5 -1 -10 4 -10 6 0 11 5 11 10 0 6 -2 10 -4 10 -3
0 -8 -4 -11 -10z"/>
<path d="M9007 10667 c3 -15 10 -27 15 -27 10 0 8 -17 -7 -52 -5 -13 -2 -18 9
-18 9 0 16 -4 16 -10 0 -5 6 -10 14 -10 9 0 12 7 9 20 -3 11 -9 20 -14 20 -5
0 -9 12 -9 26 0 19 4 25 15 20 9 -3 15 0 15 9 0 9 -6 12 -15 9 -9 -4 -23 4
-34 17 l-19 24 5 -28z"/>
<path d="M8905 10600 c3 -5 8 -10 11 -10 2 0 4 5 4 10 0 6 -5 10 -11 10 -5 0
-7 -4 -4 -10z"/>
<path d="M9000 10603 c0 -6 -12 -22 -26 -37 -15 -14 -22 -26 -16 -26 6 0 14 5
17 10 4 6 10 8 15 5 8 -5 22 46 14 54 -2 2 -4 0 -4 -6z"/>
<path d="M9070 10595 c0 -8 7 -15 15 -15 8 0 15 4 15 9 0 5 -7 11 -15 15 -9 3
-15 0 -15 -9z"/>
<path d="M8856 10542 c11 -10 19 -24 17 -32 -4 -13 -3 -13 6 0 10 13 12 13 22
0 8 -12 10 -12 7 5 -2 11 -7 18 -11 15 -5 -3 -13 3 -18 13 -6 9 -18 17 -27 17
-15 -1 -14 -3 4 -18z"/>
<path d="M8910 10549 c0 -5 5 -7 10 -4 6 3 10 8 10 11 0 2 -4 4 -10 4 -5 0
-10 -5 -10 -11z"/>
<path d="M9010 10549 c0 -5 5 -7 10 -4 6 3 10 8 10 11 0 2 -4 4 -10 4 -5 0
-10 -5 -10 -11z"/>
<path d="M8845 10520 c3 -5 8 -10 11 -10 2 0 4 5 4 10 0 6 -5 10 -11 10 -5 0
-7 -4 -4 -10z"/>
<path d="M8927 10516 c-3 -8 1 -17 9 -20 9 -4 14 1 14 14 0 23 -15 27 -23 6z"/>
<path d="M8965 10521 c-3 -5 -1 -12 5 -16 5 -3 10 1 10 9 0 18 -6 21 -15 7z"/>
<path d="M8856 10487 c3 -10 9 -15 12 -12 3 3 0 11 -7 18 -10 9 -11 8 -5 -6z"/>
<path d="M8940 10460 c0 -5 5 -10 10 -10 6 0 10 5 10 10 0 6 -4 10 -10 10 -5
0 -10 -4 -10 -10z"/>
<path d="M8893 10446 c0 -11 5 -13 19 -5 10 5 18 12 18 14 0 3 -8 5 -18 5 -10
0 -19 -7 -19 -14z"/>
<path d="M8905 10410 c-18 -20 -18 -21 2 -41 14 -14 23 -17 27 -10 4 6 2 11
-4 11 -8 0 -9 10 -5 30 8 35 4 37 -20 10z"/>
<path d="M8887 10335 c3 -8 9 -12 14 -9 12 7 11 11 -5 17 -10 4 -13 1 -9 -8z"/>
<path d="M8957 10330 c19 -22 29 -19 20 5 -4 8 -13 15 -22 15 -13 0 -12 -3 2
-20z"/>
<path d="M8932 10311 c2 -7 -3 -16 -11 -19 -8 -3 -11 0 -7 7 4 6 1 11 -8 11
-23 0 -20 -13 10 -41 21 -19 24 -20 18 -5 -5 13 -4 17 4 12 18 -11 22 10 7 30
-9 11 -14 13 -13 5z"/>
<path d="M8825 10270 c-3 -5 -1 -10 4 -10 6 0 11 5 11 10 0 6 -2 10 -4 10 -3
0 -8 -4 -11 -10z"/>
<path d="M8765 10240 c-3 -5 -1 -10 4 -10 6 0 11 5 11 10 0 6 -2 10 -4 10 -3
0 -8 -4 -11 -10z"/>
<path d="M8896 10211 c-3 -5 1 -11 9 -14 9 -4 12 -1 8 9 -6 16 -10 17 -17 5z"/>
<path d="M8930 10200 c0 -5 5 -10 11 -10 5 0 7 5 4 10 -3 6 -8 10 -11 10 -2 0
-4 -4 -4 -10z"/>
<path d="M8835 10180 c3 -5 8 -10 11 -10 2 0 4 5 4 10 0 6 -5 10 -11 10 -5 0
-7 -4 -4 -10z"/>
<path d="M8993 10135 c0 -8 4 -12 9 -9 4 3 8 9 8 15 0 5 -4 9 -8 9 -5 0 -9 -7
-9 -15z"/>
<path d="M9025 10130 c-3 -5 -1 -10 4 -10 6 0 11 5 11 10 0 6 -2 10 -4 10 -3
0 -8 -4 -11 -10z"/>
<path d="M9070 10120 c0 -5 5 -10 11 -10 5 0 7 5 4 10 -3 6 -8 10 -11 10 -2 0
-4 -4 -4 -10z"/>
<path d="M9095 10110 c-8 -25 -8 -25 25 -34 16 -5 20 -4 12 2 -8 5 -12 17 -10
27 4 26 -19 30 -27 5z"/>
<path d="M8966 10105 c4 -8 11 -15 16 -15 6 0 5 6 -2 15 -7 8 -14 15 -16 15
-2 0 -1 -7 2 -15z"/>
<path d="M9037 10103 c-4 -3 -7 -11 -7 -17 0 -6 5 -5 12 2 6 6 9 14 7 17 -3 3
-9 2 -12 -2z"/>
<path d="M8877 10079 c7 -7 15 -10 18 -7 3 3 -2 9 -12 12 -14 6 -15 5 -6 -5z"/>
<path d="M9000 10076 c0 -8 -6 -17 -12 -19 -8 -3 -6 -6 5 -6 11 -1 17 6 17 19
0 11 -2 20 -5 20 -3 0 -5 -6 -5 -14z"/>
<path d="M9052 10060 c-7 -11 -12 -25 -12 -32 0 -7 7 0 15 16 18 33 15 45 -3
16z"/>
<path d="M8955 10060 c-3 -5 -1 -10 4 -10 6 0 11 5 11 10 0 6 -2 10 -4 10 -3
0 -8 -4 -11 -10z"/>
<path d="M9143 10053 c21 -6 22 -20 2 -26 -11 -4 -10 -4 2 -3 10 1 19 9 21 19
3 12 -3 17 -20 16 -17 -1 -18 -3 -5 -6z"/>
<path d="M9080 10030 c0 -5 6 -10 13 -10 9 0 8 -3 -2 -9 -7 -5 -9 -11 -5 -14
5 -3 14 1 20 7 9 10 7 16 -7 24 -12 8 -19 8 -19 2z"/>
<path d="M9180 10021 c0 -6 5 -13 10 -16 6 -3 10 1 10 9 0 9 -4 16 -10 16 -5
0 -10 -4 -10 -9z"/>
<path d="M9002 10008 c-14 -14 -16 -28 -3 -28 5 0 11 9 14 20 6 23 5 24 -11 8z"/>
<path d="M9181 9924 c0 -11 3 -14 6 -6 3 7 2 16 -1 19 -3 4 -6 -2 -5 -13z"/>
<path d="M9250 9896 c0 -8 -6 -16 -12 -19 -7 -2 -10 -7 -7 -11 4 -4 13 -1 20
7 8 7 21 11 29 9 11 -4 11 -2 -2 11 -20 21 -28 21 -28 3z"/>
<path d="M9170 9890 c-9 -6 -10 -10 -3 -10 6 0 15 5 18 10 8 12 4 12 -15 0z"/>
<path d="M9218 9843 c6 -2 18 -2 25 0 6 3 1 5 -13 5 -14 0 -19 -2 -12 -5z"/>
<path d="M9057 9801 c-4 -17 -3 -21 5 -13 5 5 8 16 6 23 -3 8 -7 3 -11 -10z"/>
<path d="M9286 9805 c4 -8 7 -15 9 -15 2 0 5 7 9 15 3 9 0 15 -9 15 -9 0 -12
-6 -9 -15z"/>
<path d="M9310 9789 c0 -5 9 -9 20 -9 11 0 20 4 20 8 0 4 -9 8 -20 9 -11 1
-20 -2 -20 -8z"/>
<path d="M9255 9780 c-3 -6 1 -7 9 -4 18 7 21 14 7 14 -6 0 -13 -4 -16 -10z"/>
<path d="M9368 9773 c7 -3 16 -2 19 1 4 3 -2 6 -13 5 -11 0 -14 -3 -6 -6z"/>
<path d="M9315 9740 c-3 -5 -1 -10 4 -10 6 0 11 5 11 10 0 6 -2 10 -4 10 -3 0
-8 -4 -11 -10z"/>
<path d="M9375 9710 c-4 -6 -11 -8 -16 -5 -5 4 -9 2 -9 -2 0 -5 18 -9 40 -9
36 -1 38 0 23 12 -22 16 -30 17 -38 4z"/>
<path d="M9472 9694 c-7 -8 -8 -14 -3 -14 10 0 25 19 20 25 -2 1 -10 -3 -17
-11z"/>
<path d="M9418 9673 c7 -3 16 -2 19 1 4 3 -2 6 -13 5 -11 0 -14 -3 -6 -6z"/>
<path d="M9360 9661 c0 -5 5 -13 10 -16 6 -3 10 -2 10 4 0 5 -4 13 -10 16 -5
3 -10 2 -10 -4z"/>
<path d="M9465 9660 c-3 -5 1 -10 9 -10 10 0 13 -6 10 -17 -5 -14 -4 -15 4 -4
8 11 10 11 14 0 3 -8 9 -11 12 -7 4 3 -2 16 -13 27 -24 24 -27 25 -36 11z"/>
<path d="M9408 9653 c7 -3 16 -2 19 1 4 3 -2 6 -13 5 -11 0 -14 -3 -6 -6z"/>
<path d="M9293 9635 c-3 -9 -3 -18 -1 -21 3 -3 8 4 11 16 6 23 -1 27 -10 5z"/>
<path d="M9416 9615 c-9 -14 -15 -25 -13 -25 2 0 13 11 25 25 12 14 18 25 13
25 -5 0 -16 -11 -25 -25z"/>
<path d="M9366 9605 c-8 -22 -8 -22 9 -22 17 0 18 6 6 25 -7 11 -10 10 -15 -3z"/>
<path d="M9398 9558 c-5 -24 -3 -25 19 -15 25 11 33 33 9 24 -8 -3 -17 -1 -19
6 -2 7 -6 0 -9 -15z"/>
<path d="M9450 9540 c-8 -5 -11 -12 -8 -16 4 -3 14 1 23 10 18 17 9 21 -15 6z"/>
<path d="M9357 9533 c-10 -10 -8 -43 2 -43 5 0 7 10 3 22 -4 16 -2 19 8 13 9
-5 11 -4 6 3 -8 14 -10 14 -19 5z"/>
<path d="M9545 9509 c-11 -17 0 -20 21 -4 17 13 17 14 2 15 -9 0 -20 -5 -23
-11z"/>
<path d="M9316 9474 c-4 -9 -4 -19 -1 -22 2 -3 7 3 11 12 4 9 4 19 1 22 -2 3
-7 -3 -11 -12z"/>
<path d="M9350 9465 c-7 -9 -8 -15 -2 -15 5 0 12 7 16 15 3 8 4 15 2 15 -2 0
-9 -7 -16 -15z"/>
<path d="M9651 9467 c-1 -15 -4 -16 -22 -6 -27 14 -48 -9 -24 -27 8 -6 15 -24
16 -40 0 -16 3 -22 6 -14 3 8 11 18 17 22 8 5 7 11 -1 19 -10 10 -9 15 4 24 9
6 13 18 10 26 -4 10 -6 9 -6 -4z"/>
<path d="M9440 9430 c0 -5 5 -10 10 -10 6 0 10 5 10 10 0 6 -4 10 -10 10 -5 0
-10 -4 -10 -10z"/>
<path d="M9205 9420 c3 -5 8 -10 11 -10 2 0 4 5 4 10 0 6 -5 10 -11 10 -5 0
-7 -4 -4 -10z"/>
<path d="M9522 9421 c-11 -6 -10 -10 0 -19 11 -8 14 -7 14 9 0 10 0 19 -1 19
0 0 -6 -4 -13 -9z"/>
<path d="M9120 9409 c0 -5 5 -7 10 -4 6 3 10 8 10 11 0 2 -4 4 -10 4 -5 0 -10
-5 -10 -11z"/>
<path d="M9575 9410 c-3 -5 1 -10 9 -10 9 0 16 5 16 10 0 6 -4 10 -9 10 -6 0
-13 -4 -16 -10z"/>
<path d="M9362 9380 c0 -14 2 -19 5 -12 2 6 2 18 0 25 -3 6 -5 1 -5 -13z"/>
<path d="M9567 9377 c-3 -8 -1 -20 4 -28 5 -8 9 -11 10 -6 1 7 4 18 8 35 2 4
7 -2 12 -13 9 -20 9 -20 6 0 -3 23 -32 32 -40 12z"/>
<path d="M9327 9339 c4 -13 8 -18 11 -10 2 7 -1 18 -6 23 -8 8 -9 4 -5 -13z"/>
<path d="M9736 9332 c-3 -4 4 -9 15 -9 23 -2 25 3 4 10 -8 4 -16 3 -19 -1z"/>
<path d="M9614 9311 c0 -10 7 -18 16 -17 17 1 35 24 25 34 -3 4 -10 0 -15 -8
-7 -10 -10 -11 -10 -2 0 6 -4 12 -8 12 -4 0 -8 -8 -8 -19z"/>
<path d="M9670 9313 c0 -20 16 -23 36 -8 10 8 14 15 7 15 -6 0 -15 -5 -19 -11
-4 -8 -9 -7 -15 2 -6 10 -9 10 -9 2z"/>
<path d="M9585 9300 c3 -5 8 -10 11 -10 2 0 4 5 4 10 0 6 -5 10 -11 10 -5 0
-7 -4 -4 -10z"/>
<path d="M9340 9290 c0 -5 5 -10 11 -10 5 0 7 5 4 10 -3 6 -8 10 -11 10 -2 0
-4 -4 -4 -10z"/>
<path d="M9700 9279 c0 -5 5 -7 10 -4 6 3 10 8 10 11 0 2 -4 4 -10 4 -5 0 -10
-5 -10 -11z"/>
<path d="M9300 9251 c0 -10 19 -25 25 -20 1 2 -3 10 -11 17 -8 7 -14 8 -14 3z"/>
<path d="M9340 9256 c0 -2 7 -6 15 -10 8 -3 15 -1 15 4 0 6 -7 10 -15 10 -8 0
-15 -2 -15 -4z"/>
<path d="M9700 9240 c-12 -7 -10 -9 8 -7 12 0 22 5 22 9 0 11 -12 10 -30 -2z"/>
<path d="M9735 9220 c-3 -5 -1 -10 4 -10 6 0 11 5 11 10 0 6 -2 10 -4 10 -3 0
-8 -4 -11 -10z"/>
<path d="M9770 9156 c7 -7 13 -7 20 0 6 6 3 10 -10 10 -13 0 -16 -4 -10 -10z"/>
<path d="M9770 9130 c-13 -8 -13 -10 2 -10 9 0 20 5 23 10 8 13 -5 13 -25 0z"/>
<path d="M9806 9123 c-6 -14 -5 -15 5 -6 7 7 10 15 7 18 -3 3 -9 -2 -12 -12z"/>
<path d="M9877 9114 c3 -9 9 -12 12 -7 3 4 10 11 15 16 5 4 0 7 -12 7 -15 0
-20 -4 -15 -16z"/>
<path d="M9985 9100 c3 -5 8 -10 11 -10 2 0 4 5 4 10 0 6 -5 10 -11 10 -5 0
-7 -4 -4 -10z"/>
<path d="M9980 9026 c0 -9 5 -16 10 -16 6 0 10 4 10 9 0 6 -4 13 -10 16 -5 3
-10 -1 -10 -9z"/>
<path d="M9212 4039 c-13 -5 -26 -18 -29 -29 -3 -11 -10 -20 -15 -20 -5 0 -6
5 -3 10 11 17 -1 11 -36 -20 -19 -16 -38 -25 -43 -20 -4 4 -15 6 -22 3 -10 -4
-13 0 -8 13 5 17 4 17 -8 3 -7 -9 -18 -14 -25 -12 -7 3 -10 -4 -6 -19 3 -16 2
-19 -4 -10 -10 14 -43 6 -43 -10 0 -6 7 -8 15 -4 8 3 15 2 15 -2 0 -4 -14 -12
-32 -17 -17 -6 -33 -16 -34 -23 -1 -7 0 -8 2 -3 3 5 14 7 24 4 21 -6 27 -32
11 -48 -6 -6 -13 -25 -16 -44 -3 -19 -10 -42 -15 -52 -15 -26 -6 -60 19 -80
l23 -19 -31 4 c-33 4 -39 -5 -17 -23 10 -9 15 -9 18 -1 2 6 3 -23 3 -64 0 -41
-5 -79 -9 -83 -5 -4 -6 -2 -2 5 5 8 -1 12 -18 12 -14 0 -26 -4 -26 -10 0 -5
-7 -7 -15 -4 -8 4 -17 -1 -21 -10 -3 -9 -10 -14 -14 -11 -5 3 -11 1 -14 -4 -4
-5 -2 -12 4 -16 6 -4 8 -10 5 -15 -3 -4 4 -6 15 -3 11 3 20 9 20 14 0 5 4 9 8
9 5 0 9 -7 9 -15 0 -8 -4 -15 -9 -15 -4 0 -8 -4 -8 -9 0 -11 42 -2 50 10 9 13
52 15 57 3 2 -6 -10 -14 -27 -17 -16 -4 -30 -11 -30 -17 0 -14 27 -13 32 2 3
9 6 9 12 0 4 -7 2 -12 -3 -12 -6 0 -11 -7 -11 -15 0 -8 5 -15 11 -15 5 0 7 5
4 10 -3 6 0 10 7 10 10 0 14 -17 14 -65 0 -48 -3 -64 -12 -61 -7 3 -22 -13
-34 -37 -28 -57 -40 -70 -75 -83 -21 -7 -29 -16 -27 -30 2 -10 4 -32 5 -48 2
-22 11 -34 37 -47 19 -11 30 -19 23 -19 -6 0 -19 -3 -27 -6 -12 -5 -15 -2 -10
10 4 10 1 16 -7 17 -28 3 -35 4 -56 17 -31 17 -75 12 -98 -13 -24 -25 -29 -45
-12 -46 6 0 2 -4 -10 -9 -26 -11 -31 -30 -8 -30 8 0 15 -5 15 -10 0 -16 44
-30 52 -17 4 7 11 -1 18 -18 l11 -28 15 22 c15 21 17 21 30 4 8 -11 13 -13 14
-5 0 6 6 12 14 12 17 0 76 56 77 75 1 8 2 21 3 28 0 6 8 12 16 12 8 0 14 -5
13 -11 -1 -7 6 -10 17 -7 25 7 26 23 3 24 -10 0 -3 5 14 10 18 5 32 15 30 22
-1 6 6 11 16 11 9 -1 25 11 34 27 17 29 33 38 33 19 0 -16 29 0 35 20 3 10 15
20 26 23 12 3 18 10 15 16 -4 6 5 13 19 17 26 6 50 38 41 53 -3 5 7 35 23 67
16 33 25 61 20 62 -5 2 -9 9 -9 16 0 7 -15 32 -32 56 -18 24 -28 41 -21 37 12
-8 27 51 18 75 -3 8 1 21 10 28 8 7 15 21 15 32 0 18 1 18 16 3 12 -12 19 -13
30 -4 8 6 25 8 39 5 14 -4 25 -2 25 3 0 5 6 9 13 8 30 -1 47 4 47 13 0 18 42
59 56 53 10 -4 14 3 14 21 0 16 6 26 15 26 8 0 15 7 15 15 0 8 -5 15 -11 15
-6 0 -8 9 -4 21 5 15 4 19 -4 15 -7 -4 -11 1 -11 13 0 12 -9 26 -19 33 -10 6
-17 17 -14 24 2 7 -1 22 -7 34 -9 16 -18 21 -36 17 -16 -3 -24 0 -24 10 0 8 4
11 10 8 6 -3 7 1 4 9 -3 9 -13 16 -21 16 -8 0 -12 4 -9 9 3 5 -6 12 -20 15
-15 4 -24 10 -20 13 3 3 -3 12 -14 20 -10 7 -18 19 -16 26 1 6 1 9 -1 5 -8
-14 -43 -8 -43 7 0 17 -32 19 -68 4z m33 -9 c3 -5 1 -10 -4 -10 -6 0 -11 5
-11 10 0 6 2 10 4 10 3 0 8 -4 11 -10z m-25 -4 c0 -3 -4 -8 -10 -11 -5 -3 -10
-1 -10 4 0 6 5 11 10 11 6 0 10 -2 10 -4z m-206 -164 c3 -5 -1 -9 -9 -9 -8 0
-12 4 -9 9 3 4 7 8 9 8 2 0 6 -4 9 -8z"/>
<path d="M8981 3988 c-1 -14 -7 -29 -13 -31 -7 -3 -8 -6 -3 -6 24 -2 36 16 26
40 l-10 24 0 -27z"/>
<path d="M9005 3990 c-3 -5 -1 -10 4 -10 6 0 11 5 11 10 0 6 -2 10 -4 10 -3 0
-8 -4 -11 -10z"/>
<path d="M9110 3990 c-9 -6 -10 -10 -3 -10 6 0 15 5 18 10 8 12 4 12 -15 0z"/>
<path d="M8912 3550 c-13 -22 -6 -50 13 -50 7 0 15 8 18 19 3 15 0 18 -17 14
-20 -4 -20 -4 -3 10 10 8 14 17 10 20 -5 3 -14 -3 -21 -13z"/>
<path d="M8789 3193 c-13 -16 -12 -17 4 -4 16 13 21 21 13 21 -2 0 -10 -8 -17
-17z"/>
<path d="M9014 2993 c9 -9 -14 -44 -25 -38 -5 4 -9 1 -9 -4 0 -18 35 -12 58 9
29 27 28 35 -4 36 -14 1 -23 0 -20 -3z"/>
<path d="M8265 2837 c-40 -10 -50 -17 -55 -37 -4 -16 -13 -25 -27 -26 -11 -1
-27 -5 -34 -10 -8 -5 -23 -7 -34 -6 -17 2 -17 1 -5 -7 13 -9 13 -11 -2 -11
-10 0 -18 -7 -18 -16 0 -9 6 -14 13 -11 8 3 13 -3 13 -17 0 -24 -18 -46 -38
-46 -10 0 -9 3 2 10 13 9 13 11 0 20 -19 13 -30 13 -30 0 0 -5 -5 -10 -10 -10
-7 0 -6 8 1 23 11 20 11 21 -4 8 -10 -7 -17 -10 -17 -7 0 4 -7 0 -17 -9 -14
-14 -14 -18 -2 -26 8 -5 16 -9 19 -9 12 0 7 -50 -6 -50 -7 0 -11 -6 -8 -14 3
-8 1 -17 -5 -21 -6 -3 -11 1 -11 10 0 13 -2 14 -14 3 -10 -9 -11 -15 -2 -20 7
-5 4 -8 -7 -8 -14 0 -17 -5 -12 -21 5 -16 4 -19 -5 -14 -9 5 -11 4 -6 -3 4 -7
14 -12 22 -12 9 0 12 5 8 12 -4 7 -3 8 4 4 6 -4 9 -13 5 -21 -3 -9 0 -22 7
-30 7 -8 9 -15 4 -15 -5 0 -17 -14 -26 -30 -9 -17 -13 -30 -8 -30 5 0 1 -13
-8 -29 -13 -24 -19 -27 -31 -18 -12 10 -13 9 -3 -9 l12 -22 -48 16 c-47 16
-47 16 -47 61 0 29 -5 46 -14 49 -8 3 -11 0 -7 -7 4 -6 2 -11 -5 -11 -7 0 -10
11 -7 29 2 17 1 28 -3 26 -4 -3 -9 4 -12 15 -3 12 -1 18 5 14 6 -4 14 0 19 7
9 16 -23 29 -53 21 -20 -5 -25 -32 -6 -32 18 0 3 -10 -22 -15 -18 -3 -21 -1
-17 15 3 11 1 20 -4 20 -5 0 -9 -5 -9 -11 0 -6 -5 -7 -12 -2 -15 9 -48 5 -64
-8 -6 -5 -14 -6 -18 -2 -4 4 -4 -1 0 -10 4 -11 -1 -26 -12 -38 -11 -12 -18
-24 -16 -27 2 -4 -2 -8 -9 -11 -7 -2 -9 1 -4 9 5 8 4 11 -2 7 -6 -4 -13 -20
-16 -37 -4 -16 -11 -30 -17 -30 -6 0 -9 4 -6 9 3 5 -3 11 -14 14 -11 3 -23 0
-27 -5 -4 -7 -1 -8 7 -3 9 6 12 4 8 -6 -6 -16 16 -42 27 -31 4 4 5 0 3 -8 -2
-8 3 -15 10 -16 6 -1 15 -2 19 -3 4 0 -2 -7 -13 -15 -17 -13 -17 -15 -2 -21 9
-4 14 -13 11 -21 -3 -8 0 -14 7 -14 8 0 9 -4 3 -12 -11 -15 -10 -24 4 -58 10
-24 11 -24 18 15 9 56 13 65 14 33 1 -30 15 -37 25 -13 3 8 0 15 -6 15 -6 0
-8 11 -5 30 4 16 2 32 -3 35 -6 4 -7 -2 -4 -12 6 -15 4 -15 -9 2 -23 29 -21
38 8 33 22 -5 25 -2 19 15 -4 13 -3 17 6 12 6 -4 20 2 31 14 11 12 27 21 37
21 15 0 15 -2 2 -10 -12 -8 -10 -10 8 -10 15 0 26 -7 29 -20 3 -11 9 -20 14
-20 5 0 9 -7 9 -15 0 -8 5 -15 10 -15 6 0 10 -7 10 -15 0 -8 12 -23 27 -32 41
-27 63 -51 64 -70 0 -11 3 -13 6 -5 2 6 11 12 19 12 9 0 12 -4 9 -10 -3 -5 -1
-10 5 -10 7 0 10 -6 7 -14 -3 -7 0 -20 6 -27 7 -7 2 -6 -9 4 -25 21 -98 21
-90 0 3 -7 -1 -10 -9 -6 -8 3 -12 9 -9 15 3 5 -7 3 -23 -6 -23 -12 -33 -12
-42 -3 -10 9 -11 8 -6 -4 4 -10 0 -16 -9 -16 -8 0 -13 4 -10 8 2 4 0 10 -6 14
-5 3 -10 1 -10 -4 0 -6 -7 -11 -15 -11 -8 0 -15 4 -15 8 0 5 -18 14 -41 21
-32 10 -44 10 -56 0 -8 -7 -31 -12 -51 -12 -21 1 -32 0 -26 -3 7 -3 10 -14 7
-24 -4 -14 0 -20 11 -20 21 0 20 -10 -1 -26 -10 -7 -19 -17 -19 -23 -3 -24 -5
-25 -14 -11 -5 8 -12 11 -16 7 -4 -3 -1 -14 6 -22 12 -14 10 -16 -11 -10 -17
4 -32 -2 -53 -20 -17 -14 -36 -23 -42 -21 -8 3 -11 -1 -7 -11 5 -12 1 -14 -15
-9 -31 10 -69 -3 -75 -26 -3 -11 -13 -19 -24 -18 -34 4 -41 0 -36 -20 4 -16 2
-19 -11 -14 -10 4 -18 0 -22 -10 -3 -9 -10 -13 -15 -10 -8 5 -13 -10 -10 -30
1 -4 -3 -14 -10 -22 -6 -7 -8 -18 -4 -24 3 -5 2 -10 -4 -10 -6 0 -8 -6 -5 -14
6 -16 -83 -109 -97 -101 -4 3 -11 0 -15 -6 -4 -7 -3 -9 3 -6 6 4 13 0 16 -8 4
-10 1 -12 -10 -8 -13 5 -15 2 -11 -15 4 -12 2 -20 -3 -16 -5 3 -9 -2 -9 -10 0
-9 -5 -16 -11 -16 -7 0 -9 -10 -7 -25 3 -14 1 -25 -6 -25 -6 0 -2 -7 9 -16 11
-8 25 -12 33 -9 7 2 10 0 7 -5 -3 -6 3 -10 14 -10 11 0 22 -4 25 -9 3 -5 43
-7 88 -5 73 4 126 4 178 2 32 -2 145 12 174 21 39 12 124 23 201 25 89 4 146
16 176 38 15 11 32 18 37 14 6 -3 14 -1 17 5 5 6 21 8 41 4 21 -3 34 -2 34 5
0 5 7 10 16 10 10 0 14 6 11 14 -4 11 -1 13 10 9 9 -4 14 -2 10 3 -3 6 5 18
18 28 23 17 23 19 8 42 -8 13 -12 24 -9 24 8 0 -24 52 -37 61 -5 4 5 20 22 37
35 33 96 51 170 51 38 0 48 4 73 35 23 28 45 41 99 57 38 11 69 24 69 28 0 3
-7 17 -16 29 -14 20 -14 23 1 28 20 8 1 34 -26 34 -28 0 -23 13 11 33 17 10
30 16 30 13 0 -2 14 9 30 26 17 16 36 28 42 26 7 -3 24 8 39 23 15 16 39 31
53 35 14 3 23 11 20 16 -3 5 3 16 15 24 12 8 21 21 21 28 0 7 9 21 19 33 15
16 29 19 69 17 28 -1 55 -5 61 -8 14 -9 61 34 61 55 0 24 -38 59 -56 52 -16
-6 -19 13 -4 22 5 3 37 1 70 -6 53 -10 66 -10 100 6 44 20 48 28 25 47 -9 7
-32 28 -52 46 -20 18 -43 30 -50 28 -22 -9 -87 38 -108 78 -19 34 -35 47 -35
26 0 -5 -18 -17 -41 -27 l-41 -18 20 -23 c11 -12 36 -28 56 -35 36 -12 49 -31
23 -33 -6 -1 -16 -2 -21 -3 -4 0 -1 -12 8 -26 23 -35 20 -46 -20 -87 -30 -32
-39 -36 -60 -28 -13 5 -37 7 -54 4 -31 -7 -43 9 -15 20 8 3 15 10 15 16 0 5
-7 10 -15 10 -8 0 -15 7 -15 15 0 8 5 15 10 15 6 0 10 7 10 16 0 10 -6 14 -14
11 -63 -24 -96 -29 -111 -17 -8 7 -15 19 -15 26 0 8 -10 14 -24 14 -14 0 -28
5 -31 10 -3 6 3 10 13 10 11 0 23 8 26 17 5 12 9 14 18 5 17 -17 31 -15 24 3
-3 9 3 19 14 25 11 6 20 7 20 3 0 -4 4 -2 9 6 6 10 14 11 27 3 28 -16 61 26
33 43 -18 12 -124 23 -130 14 -8 -14 -72 -18 -86 -7 -16 13 -17 48 -1 48 6 0
3 9 -7 20 -10 11 -13 20 -7 20 7 0 12 7 12 15 0 8 -4 15 -10 15 -5 0 -19 18
-30 40 -12 23 -25 38 -30 35 -6 -4 -10 -1 -10 4 0 13 -10 13 -75 -2z m-215
-251 c0 -2 -8 -10 -17 -17 -16 -13 -17 -12 -4 4 13 16 21 21 21 13z m-477
-251 c-3 -9 -8 -14 -10 -11 -3 3 -2 9 2 15 9 16 15 13 8 -4z m2 -234 c-3 -6
-16 -11 -28 -11 -17 0 -19 2 -7 9 8 6 18 7 22 5 4 -3 8 0 8 7 0 7 3 10 6 6 3
-3 3 -10 -1 -16z"/>
<path d="M8180 2790 c0 -5 5 -10 10 -10 6 0 10 5 10 10 0 6 -4 10 -10 10 -5 0
-10 -4 -10 -10z"/>
<path d="M7918 2603 c6 -2 9 -10 6 -15 -4 -7 -2 -8 4 -4 18 11 14 26 -5 25
-11 0 -13 -3 -5 -6z"/>
<path d="M9965 2103 c-15 -17 -32 -24 -65 -26 -42 -2 -59 -11 -60 -30 0 -5 3
-6 8 -4 4 3 7 -5 7 -18 l0 -24 -22 21 c-17 16 -26 18 -36 10 -8 -7 -18 -8 -22
-4 -5 4 -6 2 -2 -3 10 -18 -8 -36 -39 -40 -74 -9 -88 -26 -110 -133 -3 -15 38
-62 55 -62 6 0 11 -7 11 -15 0 -8 6 -14 13 -13 7 2 12 -6 11 -19 -1 -13 2 -23
6 -23 4 0 6 -13 4 -30 -4 -35 26 -68 68 -77 39 -8 53 -27 33 -47 -9 -9 -14
-16 -10 -16 4 0 -8 -12 -26 -27 -18 -16 -39 -27 -46 -25 -17 4 -44 -23 -41
-40 4 -19 22 -36 32 -31 10 6 92 13 149 13 27 -1 47 7 68 25 17 14 27 25 22
25 -4 0 0 5 10 11 16 9 17 34 17 293 0 261 -1 284 -17 291 -17 7 -17 8 -1 14
10 3 14 11 10 17 -4 7 -14 2 -27 -13z"/>
<path d="M8475 1900 c3 -5 8 -10 11 -10 2 0 4 5 4 10 0 6 -5 10 -11 10 -5 0
-7 -4 -4 -10z"/>
<path d="M9663 1456 c0 -14 3 -26 8 -26 11 0 11 21 0 39 -6 9 -8 5 -8 -13z"/>
</g>
</svg>
