<svg xmlns="http://www.w3.org/2000/svg" viewBox="0 0 926 428"><g transform="
          rotate(0 463 214) 
          translate(-0 -0)
          scale(1)
        "><rect width="926" height="428" fill="rgb(184, 171, 255)"></rect><g transform="translate(0, 0)"><path fill="rgb(131, 114, 218)" fill-opacity="1" d="M0,139.87L22.048,138.733C44.095,137.597,88.19,135.324,132.286,134.971C176.381,134.619,220.476,136.187,264.571,136.364C308.667,136.54,352.762,135.324,396.857,120.15C440.952,104.976,485.048,75.844,529.143,73.384C573.238,70.924,617.333,95.135,661.429,87.715C705.524,80.294,749.619,41.242,793.714,39.027C837.81,36.813,881.905,71.435,903.952,88.747L926,106.058L926,428L903.952,428C881.905,428,837.81,428,793.714,428C749.619,428,705.524,428,661.429,428C617.333,428,573.238,428,529.143,428C485.048,428,440.952,428,396.857,428C352.762,428,308.667,428,264.571,428C220.476,428,176.381,428,132.286,428C88.19,428,44.095,428,22.048,428L0,428Z"></path></g><g transform="translate(0, 142.66666666666666)"><path fill="rgb(79, 57, 180)" fill-opacity="1" d="M0,53.933L22.048,46.539C44.095,39.144,88.19,24.354,132.286,31.989C176.381,39.623,220.476,69.68,264.571,75.1C308.667,80.52,352.762,61.302,396.857,51.683C440.952,42.063,485.048,42.043,529.143,55.986C573.238,69.93,617.333,97.837,661.429,112.824C705.524,127.812,749.619,129.882,793.714,112.816C837.81,95.75,881.905,59.549,903.952,41.448L926,23.348L926,285.333L903.952,285.333C881.905,285.333,837.81,285.333,793.714,285.333C749.619,285.333,705.524,285.333,661.429,285.333C617.333,285.333,573.238,285.333,529.143,285.333C485.048,285.333,440.952,285.333,396.857,285.333C352.762,285.333,308.667,285.333,264.571,285.333C220.476,285.333,176.381,285.333,132.286,285.333C88.19,285.333,44.095,285.333,22.048,285.333L0,285.333Z"></path></g><g transform="translate(0, 285.3333333333333)"><path fill="rgb(26, 0, 143)" fill-opacity="1" d="M0,42.452L22.048,53.225C44.095,63.999,88.19,85.547,132.286,100.79C176.381,116.033,220.476,124.972,264.571,119.093C308.667,113.214,352.762,92.516,396.857,71.457C440.952,50.399,485.048,28.978,529.143,17.185C573.238,5.392,617.333,3.226,661.429,16.279C705.524,29.333,749.619,57.605,793.714,66.491C837.81,75.378,881.905,64.879,903.952,59.63L926,54.38L926,142.667L903.952,142.667C881.905,142.667,837.81,142.667,793.714,142.667C749.619,142.667,705.524,142.667,661.429,142.667C617.333,142.667,573.238,142.667,529.143,142.667C485.048,142.667,440.952,142.667,396.857,142.667C352.762,142.667,308.667,142.667,264.571,142.667C220.476,142.667,176.381,142.667,132.286,142.667C88.19,142.667,44.095,142.667,22.048,142.667L0,142.667Z"></path></g></g></svg>